<?xml version="1.0" encoding="utf-8"?>
<!-- Generator: Adobe Illustrator 24.3.0, SVG Export Plug-In . SVG Version: 6.00 Build 0)  -->
<svg version="1.1" id="freepik_stories-make-it-rain" xmlns:svgjs="http://svgjs.com/svgjs"
	 xmlns="http://www.w3.org/2000/svg" xmlns:xlink="http://www.w3.org/1999/xlink" x="0px" y="0px" viewBox="0 0 500 500"
	 style="enable-background:new 0 0 500 500;" xml:space="preserve">
<style type="text/css">
	.st0{fill:#EBEBEB;}
	.st1{fill:#E0E0E0;}
	.st2{fill:#F5F5F5;}
	.st3{opacity:0.5;}
	.st4{fill:#FAFAFA;}
	.st5{fill:#263238;}
	.st6{fill:#B78876;}
	.st7{fill:#AA6550;}
	.st8{fill:#FFC23F;}
	.st9{opacity:0.3;}
	.st10{opacity:0.2;}
	.st11{fill:#455A64;}
	.st12{fill:#66CB59;}
	.st13{opacity:0.4;}
	.st14{fill:#FFFFFF;}
	.st15{opacity:0.2;enable-background:new    ;}
</style>
<g id="freepik--background-complete--inject-294">
	<path id="elk7xels6b45n" class="st0" d="M204.5,456.1c23.4-15.2,29.6-44.7,29.6-71.4c0-4.5,0.6-9.1-1.3-13.1s-6.8-6.8-10.9-5.1
		c-3.4,1.4-4.9,5.2-6.9,8.4c-2.6,4.2-6.3,7.5-10.8,9.6c-2.9,1.4-6.4,2.1-9.2,0.5c-3.8-2.2-4-7.6-3.9-12c0.3-8.2,0.7-16.5,1-24.7
		c0.2-4.4,0.3-8.9-0.9-13.2s-4.1-8.3-8.3-9.6s-9.5,0.9-10.5,5.2c-0.4,1.8-0.1,3.7-0.3,5.5s-1.1,3.8-2.9,4.3s-3.5-0.9-4.8-2.2
		c-4.4-4.6-7.3-10.5-10-16.3s-5.3-11.8-9.3-16.8s-9.6-9.1-15.9-9.6s-13.2,3.1-15,9.3s1.6,12.6,5.4,17.8c5.6,7.7,12.3,14.5,19.8,20.3
		c1.4,1,2.8,2.1,3.3,3.8c0.9,3-2,5.8-5,6.7c-3.3,1-6.9,0.5-10.4,0.8s-7.3,1.7-8.7,4.9c-2,4.5,1.7,9.3,5.3,12.6
		c7.2,6.5,15.6,11.7,24.6,15.3c3.2,1.3,6.6,2.5,9.1,4.8s4,6.4,2.3,9.5s-5.8,3.9-9.2,3.2s-6.4-2.7-9.6-4c-6-2.5-13.9-2.4-17.9,2.8
		c-2.7,3.4-3.1,8.2-1.9,12.3s3.7,7.8,6.3,11.2c9.4,11.8,21.5,21.4,35.5,26.8S190.3,460.8,204.5,456.1"/>
	<path id="el5lu3jmqcmyf" class="st1" d="M201.8,457c-0.6-10.6-0.1-4.2-3.6-17.8c-3.9-14.7-8.7-29.1-14.3-43.2
		c-1.5-3.8-2.9-7.5-4.3-11.1c-1.4-3.6-2.8-7.3-4.4-10.7c-3.1-6.6-6.6-13.1-10.4-19.3c-3.6-6-7.2-11.5-10.6-16.7s-6.7-9.9-9.9-14.1
		c-5-6.7-10.5-12.9-16.5-18.7c-2.1-2-3.8-3.6-5-4.6l-1.3-1.1c-0.1-0.1-0.3-0.3-0.5-0.4c0.1,0.2,0.3,0.3,0.4,0.4l1.3,1.2
		c1.1,1.1,2.8,2.6,4.9,4.7c5.9,5.9,11.3,12.1,16.3,18.8c3.1,4.2,6.4,9,9.8,14.1s7,10.8,10.6,16.7c3.8,6.2,7.2,12.7,10.3,19.3
		c1.6,3.4,3,7,4.4,10.7l4.3,11.1c5.6,14.1,10.4,28.5,14.3,43.1c3.5,13.5,3.1,7.1,3.8,17.7"/>
	<path id="elbtmbxrwrmnb" class="st1" d="M174.9,374c0.2-0.6,0.4-1.2,0.5-1.9c0.3-1.2,0.6-3,1-5.2c0.8-4.4,1.6-10.5,2.6-17.2
		s1.9-12.8,2.7-17.1c0.4-2.2,0.8-3.9,1-5.2c0.2-0.6,0.3-1.3,0.3-1.9c-0.3,0.6-0.5,1.2-0.6,1.8c-0.4,1.2-0.8,3-1.3,5.1
		c-1,4.4-2,10.4-3,17.1s-1.7,12.6-2.3,17.2c-0.3,2.1-0.6,3.8-0.8,5.2C174.9,372.7,174.8,373.4,174.9,374z"/>
	<path id="elinnodh7k3ll" class="st1" d="M118.3,361.4c0.7,0.2,1.5,0.3,2.3,0.4c1.5,0.2,3.6,0.4,6.2,0.8c5.2,0.7,12.3,2,20.1,3.8
		s14.8,3.7,19.8,5.2c2.5,0.7,4.5,1.4,5.9,1.8c0.7,0.3,1.4,0.5,2.2,0.6c-0.7-0.4-1.4-0.7-2.1-0.9c-1.4-0.5-3.4-1.3-5.9-2.1
		c-5-1.7-12-3.6-19.8-5.4c-6.7-1.5-13.4-2.7-20.2-3.6c-2.6-0.3-4.7-0.5-6.2-0.6C119.9,361.4,119.1,361.4,118.3,361.4z"/>
	<path id="el8nq08lgwxsc" class="st1" d="M197.5,438.1c0.2-0.2,0.3-0.4,0.4-0.7l1-2c0.9-1.8,2.1-4.3,3.6-7.6
		c3-6.4,6.8-15.4,10.9-25.4s7.8-19,10.6-25.5c1.4-3.1,2.5-5.7,3.4-7.7c0.4-0.8,0.7-1.5,0.9-2.1c0.1-0.2,0.2-0.5,0.3-0.8
		c-0.2,0.2-0.3,0.4-0.4,0.7l-1,2c-0.9,1.8-2.1,4.4-3.6,7.6c-3,6.4-6.8,15.4-10.9,25.4s-7.8,19-10.6,25.5c-1.4,3.1-2.5,5.7-3.4,7.7
		l-0.9,2.1C197.7,437.6,197.6,437.8,197.5,438.1z"/>
	<path id="elim68241plns" class="st1" d="M122.7,411.1c0.2,0.1,0.5,0.3,0.7,0.3l2.2,0.8l8,2.9c6.8,2.5,16.1,5.9,26.3,9.8
		s19.6,7.3,26.4,9.6c3.4,1.1,6.2,2.1,8.1,2.6l2.2,0.7c0.3,0.1,0.5,0.2,0.8,0.2c-0.2-0.1-0.5-0.3-0.7-0.3l-2.2-0.8l-8-2.9
		c-6.8-2.5-16.1-5.9-26.3-9.8s-19.6-7.3-26.4-9.6c-3.4-1.2-6.2-2.1-8.1-2.6l-2.2-0.7C123.3,411.2,123,411.2,122.7,411.1z"/>
	<path id="elfouz1fqv6g5" class="st0" d="M395.6,230.6c0,0-12.1-6.4-23.2,22.1s-14.8,44.6-14.8,44.6s-3.1,6-7.4,2.7
		s-10.6-13.3-17.1-10.8c-6.7,2.6-8.2,10.5-5.8,21.7s6.8,35.8,7.2,38s-0.6,5.6-3.8,3.8s-22.8-19.7-30.7-9.9s3.9,39.7,5.1,43
		s0.7,4.8-0.8,5.8s-7.5-5.6-13.3-10.5s-13.3-9.5-17.4-3.5s-3.3,29.3,22.4,64.7l13,15.6l20.1-3.1c42.7-9.3,58.8-26.1,59.8-33.4
		s-7.8-8.8-15.3-9s-16.4,0.7-16.9-1s0.1-3.2,3.3-4.9s31.9-16.1,32.5-28.7s-25.9-12.3-29.5-13.1s-2.1-4-0.4-5.4s21.5-16.8,30.7-23.5
		s13.4-13.6,10.1-20c-3.1-6.2-14.5-3-19.9-3.3s-3.7-6.9-3.7-6.9s8-14.5,18.6-43.2s-3-31.9-3-31.9"/>
	<path id="elpgk3fln9ku" class="st1" d="M309.4,453.5c7.9-21,19-49.9,31.5-81.9s23.6-60.8,31.6-81.8l9.4-24.8l2.6-6.8l0.7-1.8
		c0.2-0.4,0.3-0.6,0.3-0.6s0,0.2-0.2,0.6l-0.6,1.8l-2.5,6.8c-2.1,5.9-5.3,14.4-9.3,24.9c-7.9,21-19,50-31.4,81.9
		s-23.6,60.8-31.6,81.8"/>
	<path id="elgiguad6e8eg" class="st1" d="M341.3,303.4c0.3,0.4,0.5,0.9,0.6,1.3c0.4,0.9,0.9,2.1,1.5,3.7c1.2,3.1,2.8,7.5,4.5,12.4
		s3.1,9.1,4.2,12.5l1.3,3.8c0.2,0.5,0.3,0.9,0.4,1.4c-0.3-0.4-0.5-0.9-0.6-1.3c-0.4-0.9-0.9-2.1-1.5-3.7c-1.2-3.1-2.7-7.5-4.4-12.4
		l-4.3-12.4l-1.3-3.8C341.5,304.3,341.4,303.9,341.3,303.4z"/>
	<path id="els2nsx21ldaq" class="st1" d="M355.8,338.6c-0.1-0.2,8.8-3.8,19.9-8.2s20-7.8,20.1-7.6s-8.8,3.9-19.9,8.2
		S355.9,338.8,355.8,338.6z"/>
	<path id="elaqe3sr9b0fb" class="st1" d="M334.5,386.8c0.5-0.1,1-0.2,1.5-0.2l4.1-0.4c3.4-0.3,8.1-0.8,13.3-1.5s9.9-1.5,13.3-2.1
		l4-0.7c0.5-0.1,1-0.2,1.5-0.2c-0.5,0.2-0.9,0.3-1.4,0.4c-0.9,0.2-2.3,0.6-4,0.9c-3.4,0.7-8.1,1.6-13.3,2.3s-10,1.1-13.4,1.3
		c-1.7,0.1-3.1,0.2-4.1,0.2C335.5,386.9,335,386.8,334.5,386.8z"/>
	<path id="elybd22bv7y8d" class="st1" d="M314.4,357.8c0.3,0.3,0.6,0.7,0.9,1l2.3,3c1.9,2.5,4.5,6.1,7.3,10.1s5.4,7.5,7.1,10.2
		l2.1,3.1c0.3,0.4,0.5,0.8,0.7,1.2c-0.3-0.3-0.6-0.7-0.9-1c-0.6-0.8-1.4-1.8-2.3-3c-1.9-2.6-4.5-6.1-7.3-10.1s-5.3-7.5-7.1-10.2
		l-2.1-3.1C314.8,358.6,314.6,358.2,314.4,357.8z"/>
	<path id="el12yuwsmo62c" class="st1" d="M290.2,397.9c0.4,0.4,0.8,0.9,1.1,1.4l2.9,3.8c2.4,3.3,5.8,7.8,9.4,12.8s7,9.6,9.3,12.9
		l2.8,4c0.4,0.5,0.7,1,0.9,1.5c-0.4-0.4-0.8-0.9-1.1-1.4l-2.9-3.9c-2.5-3.3-5.8-7.8-9.5-12.8s-7-9.6-9.3-12.9l-2.8-4
		C290.8,399,290.5,398.5,290.2,397.9z"/>
	<path id="eldsf1qptqwss" class="st1" d="M316.3,433.3c0.6-0.2,1.2-0.3,1.9-0.3l5.1-0.7c4.3-0.6,10.3-1.4,16.9-2.5s12.5-2.2,16.8-3
		l5.1-1c0.6-0.2,1.2-0.3,1.9-0.3c-0.6,0.2-1.2,0.4-1.8,0.5c-1.2,0.3-2.9,0.7-5,1.2c-4.3,1-10.2,2.2-16.8,3.2s-12.6,1.8-16.9,2.3
		c-2.2,0.2-3.9,0.4-5.1,0.5C317.6,433.3,317,433.3,316.3,433.3z"/>
	<path id="ely27rb8x0x2c" class="st0" d="M374.4,158.4c0,0-5.7,7.5-16.9,5.4c-6.9-1.3-20.6-2-22.4,3.1l2.1,15.4
		c6-1.4,12.3-1.4,18.4-0.1c9.1,2.2,22.3-4.3,22.3-4.3L374.4,158.4z"/>
	<path id="el7bsz50l2t8w" class="st2" d="M355.8,180c-4.1-0.4-7.1-4-6.8-8c0-0.4,0.1-0.7,0.2-1.1c1-3.7,6.6-5.5,10.3-4.4
		c3.7,1,5.9,4.9,4.9,8.6c0,0,0,0,0,0.1C363.4,178.8,359.7,180.3,355.8,180z"/>
	<path id="el3oh87wjl2a" class="st0" d="M354.7,177.2c0-0.1,0.3-0.2,0.8-0.2c0.7,0,1.3-0.1,2-0.2c0.4-0.1,0.7-0.3,1.1-0.5
		c0.3-0.2,0.5-0.6,0.6-0.9c0.1-0.4-0.1-0.7-0.3-1c-0.4-0.3-0.8-0.4-1.3-0.3h-1c-0.4,0-0.8-0.1-1.2-0.3c-0.2-0.1-0.4-0.2-0.6-0.4
		c-0.2-0.1-0.4-0.3-0.5-0.5c-0.2-0.4-0.4-0.8-0.4-1.3c0-0.8,0.4-1.6,1.1-2c0.5-0.3,1.1-0.5,1.7-0.6c0.4-0.1,0.9-0.1,1.3,0
		c0.3,0.1,0.6,0.1,0.9,0.2c0.5,0.2,0.8,0.3,0.7,0.4s-0.3,0.2-0.8,0.2c-0.7,0-1.3,0.1-2,0.2c-0.4,0.1-0.7,0.3-1,0.5
		c-0.3,0.2-0.4,0.5-0.4,0.9c0,0.2,0.1,0.3,0.1,0.4c0,0.1,0.1,0.1,0.2,0.1c0.1,0.1,0.1,0.1,0.2,0.1c0.6,0.1,1.1,0.2,1.7,0.1
		c0.4,0,0.8,0.1,1.2,0.2c0.2,0.1,0.4,0.2,0.6,0.3c0.2,0.1,0.4,0.3,0.6,0.4c0.6,0.6,0.9,1.6,0.7,2.4c-0.2,0.7-0.7,1.4-1.3,1.8
		c-0.5,0.3-1.1,0.5-1.6,0.6c-0.8,0.1-1.5,0-2.3-0.3C354.9,177.5,354.7,177.3,354.7,177.2z"/>
	<path id="el856gyuavxgu" class="st0" d="M358.6,179c-0.2,0-0.7-2.5-1.1-5.6s-0.5-5.6-0.3-5.7s0.7,2.5,1.1,5.6
		S358.8,178.9,358.6,179z"/>
	<path id="el9gh9rikhlfq" class="st0" d="M357.3,178.8c-0.2,0-0.7-2.2-1-5.1s-0.4-5.1-0.2-5.2s0.7,2.2,1,5.1
		S357.5,178.8,357.3,178.8z"/>
	<g id="ela7i6e7rw8g">
		<g id="elxcdycd7j4d" class="st3">
			<path id="elzndye6s5p7d" class="st4" d="M338.5,180.7l-1.8-14.1l0.1-0.1c5.5-4,15.6-2.3,22.2-1.2c1.1,0.2,2.2,0.4,3.2,0.5
				c6.3,0.9,10.9-4.1,11.1-4.6h0.5l2.3,15.1l-0.1,0.1c-6.9,4.4-15.3,5.7-23.2,3.6c-5.3-1.6-13.9,0.6-13.9,0.6L338.5,180.7z
				 M337.2,166.9l1.7,13.2c1.5-0.4,9-2,13.9-0.6c7.7,2.1,15.9,0.8,22.6-3.4l-2.1-14.1c-0.3,0.4-0.6,0.7-1,1c-1.1,1-5.1,4.1-10.3,3.4
				c-0.9-0.1-2-0.3-3.2-0.5C352.4,164.7,342.5,163.1,337.2,166.9L337.2,166.9z"/>
		</g>
	</g>
	<path id="elyyjnigpzpy" class="st0" d="M295.6,73.2c0,0-9,3-17-5c-5-5-16-13.2-20.3-9.9l-6.9,14c5.8,2.2,11,5.7,15.3,10.1
		c6.3,6.9,20.9,8.9,20.9,8.9L295.6,73.2z"/>
	<path id="eljmu1b7aj9wa" class="st2" d="M268.1,80.7c-3.2-2.6-3.7-7.2-1.2-10.4c0.2-0.3,0.5-0.6,0.8-0.8c2.9-2.5,8.5-0.8,11.1,2.1
		c2.5,2.9,2.2,7.3-0.7,9.9c0,0,0,0,0,0C275.1,84,271.1,83.2,268.1,80.7z"/>
	<path id="el6uhncro5exv" class="st0" d="M268.7,77.8c0.1-0.1,0.4,0,0.8,0.3c0.6,0.4,1.1,0.7,1.8,0.9c0.4,0.1,0.8,0.2,1.2,0.2
		c0.4,0,0.7-0.2,1-0.4c0.2-0.3,0.3-0.6,0.3-1c-0.1-0.3-0.4-0.7-0.9-1c-0.3-0.2-0.5-0.4-0.8-0.6c-0.3-0.2-0.6-0.5-0.9-0.9
		c-0.1-0.2-0.2-0.4-0.3-0.6c-0.2-0.7-0.1-1.4,0.3-2c0.2-0.3,0.6-0.6,0.9-0.8c0.3-0.2,0.7-0.3,1.1-0.3c0.6,0,1.2,0.1,1.7,0.4
		c0.4,0.2,0.8,0.5,1.1,0.8c0.2,0.2,0.4,0.5,0.6,0.7c0.3,0.4,0.4,0.7,0.4,0.8s-0.4,0-0.8-0.3c-0.6-0.4-1.1-0.7-1.8-0.9
		c-0.4-0.1-0.8-0.2-1.1-0.1c-0.3,0-0.6,0.2-0.8,0.5c-0.1,0.1-0.1,0.3-0.1,0.4c0,0.1,0,0.1,0,0.2c0,0.1,0.1,0.2,0.1,0.2
		c0.4,0.4,0.8,0.8,1.3,1.1c0.3,0.2,0.6,0.5,0.9,0.8c0.1,0.2,0.3,0.4,0.4,0.6c0.1,0.2,0.2,0.4,0.2,0.7c0.2,0.9-0.1,1.8-0.8,2.4
		c-0.6,0.5-1.3,0.8-2.1,0.7c-0.6,0-1.2-0.2-1.7-0.4c-0.7-0.4-1.3-0.9-1.7-1.5C268.8,78.2,268.6,77.9,268.7,77.8z"/>
	<path id="elivuhssg5lp" class="st0" d="M271,81.4c-0.2-0.1,0.8-2.4,2.2-5.2s2.8-5,3-4.8s-0.8,2.4-2.2,5.2S271.2,81.5,271,81.4z"/>
	<path id="el6qd4shcqnp" class="st0" d="M270,80.6c-0.2-0.1,0.7-2.2,2-4.8s2.5-4.5,2.7-4.4s-0.7,2.2-2,4.8S270.2,80.7,270,80.6z"/>
	<g id="el7zebt7iatiw">
		<g id="el8ylv1h1hszk" class="st3">
			<path id="ele6jkd6syvkh" class="st4" d="M253.3,71.6l6.3-12.7h0.1c6.8-0.3,14.2,6.8,19.1,11.4c0.8,0.8,1.6,1.6,2.4,2.2
				c4.7,4.2,11.3,2.7,11.8,2.3l0.4,0.3l-6.6,13.8h-0.2c-8.1-0.2-15.8-3.8-21.2-9.9c-3.5-4.3-11.8-7.2-11.9-7.3L253.3,71.6z
				 M260,59.4l-6,11.9c1.5,0.6,8.5,3.3,11.9,7.3c5.2,6,12.7,9.5,20.7,9.8l6.2-12.9c-0.4,0.1-0.9,0.2-1.4,0.3
				c-1.5,0.2-6.5,0.6-10.4-2.9c-0.7-0.6-1.5-1.4-2.4-2.2C273.8,66.1,266.5,59.2,260,59.4z"/>
		</g>
	</g>
	<path id="elttpxsl3m11i" class="st2" d="M169.3,141.2c0,0-9.4-0.6-13.8-11.2c-2.7-6.5-9.7-18.3-15-17l-11.7,10.2
		c4.5,4.3,8,9.5,10.2,15.3c3.2,8.8,15.9,16.2,15.9,16.2L169.3,141.2z"/>
	<path id="elp3jxjvlrrwj" class="st0" d="M141,137.5c-2-3.6-0.6-8.1,3-10.1c0.3-0.2,0.7-0.3,1-0.5c3.7-1.2,8.2,2.5,9.4,6.2
		c1.2,3.7-0.8,7.6-4.5,8.8c0,0,0,0,0,0C146.2,143.2,142.9,141,141,137.5z"/>
	<path id="el8s0rt0y9f3o" class="st2" d="M142.7,135.1c0.1,0,0.3,0.2,0.6,0.6c0.4,0.5,0.8,1.1,1.3,1.5c0.3,0.3,0.6,0.5,1,0.6
		c0.4,0.1,0.7,0.1,1.1,0c0.3-0.2,0.6-0.5,0.6-0.8c0-0.5-0.1-0.9-0.4-1.3c-0.2-0.3-0.4-0.6-0.6-0.9c-0.2-0.4-0.4-0.8-0.5-1.2
		c0-0.2,0-0.5,0-0.7c0-0.2,0.1-0.5,0.2-0.7c0.2-0.4,0.5-0.8,0.9-1c0.3-0.2,0.8-0.4,1.2-0.4c0.4,0,0.7,0,1.1,0.2
		c0.6,0.2,1,0.6,1.4,1.1c0.3,0.3,0.5,0.7,0.7,1.1c0.1,0.3,0.2,0.6,0.3,0.9c0.1,0.5,0.1,0.8,0,0.9s-0.3-0.2-0.6-0.6
		c-0.4-0.5-0.8-1.1-1.3-1.5c-0.3-0.3-0.6-0.4-1-0.6c-0.3-0.1-0.7-0.1-1,0.2c-0.1,0.1-0.2,0.2-0.3,0.4c0,0.1,0,0.1,0,0.2
		c0,0.1,0,0.2,0,0.3c0.2,0.5,0.5,1,0.8,1.5c0.2,0.3,0.4,0.7,0.5,1.1c0.1,0.2,0.1,0.4,0.1,0.7c0,0.2,0,0.5,0,0.7
		c-0.2,0.9-0.8,1.6-1.7,1.9c-0.7,0.3-1.5,0.2-2.2-0.1c-0.5-0.2-1-0.6-1.4-1.1c-0.5-0.6-0.8-1.3-1-2.1
		C142.6,135.4,142.6,135.1,142.7,135.1z"/>
	<path id="elt8cricb7rhi" class="st2" d="M143.4,139.3c-0.1-0.2,1.7-2,4.1-4s4.5-3.5,4.6-3.3s-1.7,2-4.1,4S143.6,139.5,143.4,139.3z
		"/>
	<path id="elnat4krec03" class="st2" d="M142.8,138.1c-0.1-0.2,1.5-1.8,3.7-3.6s4.1-3.2,4.2-3s-1.5,1.8-3.7,3.6
		S143,138.3,142.8,138.1z"/>
	<g id="elzl0lezsn6od">
		<g id="elqvgu26lz92" class="st3">
			<path id="el34mqaq13y8y" class="st0" d="M130.9,123.5l10.7-9.3h0.1c6.4,2.3,10.5,11.7,13.3,17.9c0.5,1.1,0.9,2.1,1.3,2.9
				c2.7,5.7,9.4,6.9,10,6.7l0.3,0.4l-11.4,10.2l-0.1-0.1c-7.4-3.3-13.2-9.6-15.8-17.3c-1.6-5.3-8.1-11.2-8.2-11.3L130.9,123.5z
				 M141.7,114.8l-10.1,8.7c1.2,1.1,6.6,6.4,8.1,11.3c2.5,7.6,8.1,13.7,15.3,17l10.6-9.5c-0.5-0.1-0.9-0.1-1.4-0.3
				c-1.4-0.4-6.3-2-8.5-6.7c-0.4-0.9-0.9-1.9-1.3-2.9C151.9,126.3,147.8,117.1,141.7,114.8z"/>
		</g>
	</g>
	<path id="elbwy0y8i0r8s" class="st2" d="M101.4,229.7c-1.6,4.1-5.2,7-9.6,7.6c-4.8,0.9-13.8,3.8-13.7,7.5l5.1,9.4
		c3.6-2.4,7.6-4,11.8-4.6c6.4-0.8,13.3-8.2,13.3-8.2L101.4,229.7z"/>
	<path id="el1ji86wj4u49" class="st0" d="M94.7,248.2c-2.7,0.8-5.6-0.8-6.4-3.5c-0.1-0.2-0.1-0.5-0.2-0.7c-0.3-2.7,2.9-5.2,5.6-5.4
		c2.7-0.3,5,1.7,5.3,4.4C99.3,245.6,97.3,247.5,94.7,248.2z"/>
	<path id="eliga5kmmanf" class="st2" d="M93.3,246.7c0-0.1,0.2-0.2,0.5-0.3c0.4-0.2,0.8-0.4,1.2-0.6c0.2-0.2,0.4-0.4,0.6-0.6
		c0.1-0.2,0.2-0.5,0.2-0.7c-0.1-0.2-0.2-0.5-0.5-0.6c-0.3-0.1-0.6,0-0.9,0.1c-0.2,0.1-0.4,0.2-0.7,0.2c-0.3,0.1-0.6,0.1-0.8,0.1
		c-0.2,0-0.3,0-0.5-0.1c-0.2,0-0.3-0.1-0.4-0.2c-0.3-0.2-0.4-0.4-0.6-0.7c-0.1-0.3-0.1-0.6-0.1-0.9c0-0.3,0.1-0.5,0.3-0.7
		c0.2-0.3,0.5-0.6,0.9-0.8c0.3-0.1,0.6-0.2,0.9-0.3c0.2,0,0.4-0.1,0.7-0.1c0.4,0,0.6,0,0.6,0.1s-0.2,0.2-0.5,0.3
		c-0.4,0.2-0.8,0.4-1.2,0.6c-0.2,0.2-0.4,0.4-0.5,0.6c-0.1,0.2-0.1,0.5,0,0.7c0,0.1,0.1,0.2,0.2,0.2l0.1,0.1h0.2
		c0.4-0.1,0.8-0.2,1.1-0.3c0.3-0.1,0.5-0.2,0.8-0.2c0.2,0,0.3,0,0.5,0c0.2,0,0.3,0.1,0.5,0.1c0.6,0.3,1,0.8,1.1,1.4
		c0.1,0.5-0.1,1.1-0.4,1.5c-0.2,0.3-0.6,0.6-0.9,0.8c-0.5,0.2-1,0.4-1.5,0.4C93.5,246.8,93.3,246.8,93.3,246.7z"/>
	<path id="el1fapvwssbtc" class="st2" d="M96.2,246.9c-1.5-2.1-2.8-4.5-3.6-6.9c0.8,1,1.6,2.1,2.1,3.3
		C95.4,244.4,95.9,245.6,96.2,246.9z"/>
	<path id="elo3nhwdrohoq" class="st2" d="M95.4,247.1c-0.2,0.1-1-1.3-1.9-3c-0.6-1-1.1-2.1-1.4-3.3c0.8,0.9,1.4,1.9,1.9,3
		C94.6,244.8,95.1,245.9,95.4,247.1z"/>
	<g id="el4upnvvvrham">
		<g id="el78o6rsjtn2q" class="st3">
			<path id="elqn1f3gpp6a" class="st0" d="M83.7,252.9l-4.7-8.6v-0.1c2.5-3.9,9.5-5.3,14.1-6.3c0.8-0.2,1.5-0.3,2.2-0.5
				c2.8-0.7,5.1-2.9,6-5.7l0.3-0.1l5.2,9.2l-0.1,0.1c-3.4,4.5-8.5,7.4-14.1,8c-3.8,0.3-8.8,3.8-8.8,3.8L83.7,252.9z M79.4,244.3
				l4.4,8.1c0.9-0.6,5.3-3.5,8.8-3.8c5.5-0.6,10.5-3.4,13.8-7.8l-4.8-8.6c-0.1,0.3-0.2,0.6-0.4,0.9c-1.2,2.3-3.3,4-5.8,4.7
				c-0.6,0.1-1.4,0.3-2.2,0.5C88.7,239.2,81.9,240.6,79.4,244.3L79.4,244.3z"/>
		</g>
	</g>
	<path id="elkwpegk72dw7" class="st2" d="M467.5,143.6c-3.7,2.4-8.4,2.7-12.3,0.6c-4.4-2.1-13.4-5-15.5-1.9l-1.4,10.7
		c4.3,0.1,8.5,1.2,12.3,3.1c5.7,3.1,15.6,1.1,15.6,1.1L467.5,143.6z"/>
	<path id="ellj8vqkyx8wj" class="st0" d="M451.3,154.7c-2.7-1-4.1-3.9-3.1-6.6c0.1-0.2,0.2-0.5,0.3-0.7c1.4-2.3,5.4-2.5,7.7-1.1
		c2.3,1.3,3.1,4.3,1.8,6.6c0,0,0,0,0,0C456.6,155.3,453.8,155.6,451.3,154.7z"/>
	<path id="el1zhrpgaqs6o" class="st2" d="M451,152.7c0-0.1,0.2,0,0.6,0c0.4,0.1,0.9,0.2,1.4,0.2c0.3,0,0.6-0.1,0.8-0.2
		c0.2-0.1,0.4-0.3,0.6-0.5c0.1-0.2,0.1-0.5,0-0.7c-0.2-0.2-0.5-0.4-0.8-0.5c-0.2-0.1-0.4-0.1-0.7-0.2c-0.3-0.1-0.5-0.2-0.8-0.4
		c-0.1-0.1-0.2-0.2-0.3-0.3c-0.1-0.1-0.2-0.3-0.2-0.4c-0.1-0.3-0.1-0.6,0-0.9c0.1-0.3,0.2-0.5,0.4-0.7c0.2-0.2,0.4-0.3,0.6-0.4
		c0.4-0.1,0.8-0.2,1.2-0.1c0.3,0,0.6,0.1,0.9,0.3c0.2,0.1,0.4,0.2,0.6,0.3c0.3,0.2,0.4,0.4,0.4,0.4s-0.2,0.1-0.6,0
		c-0.4-0.1-0.9-0.2-1.4-0.2c-0.3,0-0.5,0.1-0.8,0.2c-0.2,0.1-0.4,0.3-0.4,0.5c0,0.1,0,0.2,0,0.3c0,0,0,0.1,0.1,0.1
		c0,0,0.1,0.1,0.1,0.1c0.3,0.2,0.7,0.3,1.1,0.4c0.3,0.1,0.5,0.2,0.8,0.3c0.1,0.1,0.3,0.2,0.4,0.3c0.1,0.1,0.2,0.2,0.3,0.4
		c0.3,0.5,0.3,1.2,0,1.8c-0.2,0.5-0.7,0.8-1.2,1c-0.4,0.1-0.8,0.1-1.2,0.1c-0.5-0.1-1-0.3-1.5-0.6C451.1,152.9,451,152.8,451,152.7z
		"/>
	<path id="el86330b72g23" class="st2" d="M453.3,154.5c-0.1-1.3,0-2.6,0.3-3.9c0.1-1.3,0.4-2.6,0.8-3.8c0.1,1.3,0,2.6-0.3,3.9
		C454.1,152,453.8,153.3,453.3,154.5z"/>
	<path id="elsyiy32uhqcn" class="st2" d="M452.5,154.2c-0.1-1.2,0-2.4,0.2-3.6c0.1-1.2,0.3-2.4,0.8-3.5c0.1,1.2,0,2.4-0.2,3.6
		C453.2,151.9,452.9,153.1,452.5,154.2z"/>
	<g id="eltr54cicct2">
		<g id="eljk1h4et37m" class="st3">
			<path id="elf2lb0hkiwr6" class="st0" d="M439.6,152.1l1.3-9.7h0.1c4.4-1.7,10.8,1.2,15.1,3.1c0.7,0.3,1.4,0.6,2,0.9
				c2.7,1.1,5.8,0.6,8.2-1.1l0.3,0.1l-1.2,10.5h-0.1c-5.4,1.7-11.2,1.1-16.1-1.7c-3.3-2-9.4-2.1-9.4-2.1L439.6,152.1z M441.1,142.7
				l-1.2,9.1c1.1,0,6.3,0.3,9.4,2.1c4.8,2.7,10.5,3.4,15.7,1.7l1.1-9.8c-0.3,0.2-0.5,0.3-0.8,0.5c-2.3,1.2-5,1.4-7.5,0.4l-2-0.9
				C451.7,143.9,445.4,141.1,441.1,142.7z"/>
		</g>
	</g>
</g>
<g id="freepik--Floor--inject-294">
	<path id="el91h8k0qqo77" class="st5" d="M476.4,459.8c0,0.1-101.4,0.3-226.4,0.3S23.6,460,23.6,459.8s101.4-0.3,226.4-0.3
		S476.4,459.7,476.4,459.8z"/>
</g>
<g id="freepik--Character--inject-294">
	<path id="elp6ho5ulxen" class="st5" d="M227.2,240.4c-1.5-3.3-2.7-6.7-3.6-10.2c-0.9-3.6-0.6-7.3,0.6-10.7c1.3-3.4,4.2-6,7.8-6.9
		c2.2-0.4,4.5-0.1,6.6-0.8c2.4-0.9,4.1-3.1,5.9-4.9c3-2.8,6.8-4.5,10.9-4.9c2.1-0.3,4.3,0,6.2,0.9c2,0.9,3.3,2.8,3.6,4.9
		c2.4-0.9,5-1.6,7.6-1.8c2.6-0.3,5.3,0.5,7.3,2.2c2.1,1.7,2.7,4.6,1.7,7.1c2.3-1.1,5.1-0.3,6.4,1.8c1.3,2.2,1.1,5-0.4,7
		c-1.8,2.2-4.4,3.7-7.2,4.1c-2.4,0.3-5.3,0.6-7.6-0.2"/>
	<path id="eljafbk26ru28" class="st6" d="M233.2,310.8l35-2.8c0.2-4.1-0.1-19.9-0.1-19.9s14.6-2.3,14.7-16.8s-2.3-48-2.3-48l0,0
		c-16.9-7.2-36.3-4.8-50.9,6.4l-2.2,1.7L233.2,310.8z"/>
	<path id="elkcgtlni39en" class="st7" d="M268.1,287.9c-6.7,0.1-13.3-1.8-19-5.4c0,0,4.5,10.5,19,9.2V287.9z"/>
	<path id="el2hn8n6fy7bg" class="st6" d="M229.3,246.4c-0.2-0.1-10-3-9.7,7s10.2,7.6,10.3,7.3S229.3,246.4,229.3,246.4z"/>
	<path id="ellybhgcy4ef" class="st7" d="M226.7,257c0,0-0.2,0.1-0.5,0.3c-0.4,0.2-0.9,0.2-1.3,0.1c-1.1-0.4-2-2-2.1-3.8
		c-0.1-0.9,0.1-1.7,0.4-2.5c0.2-0.6,0.6-1.2,1.3-1.4c0.4-0.1,0.8,0.1,1,0.4c0.1,0.3,0.1,0.5,0.1,0.5s0.2-0.2,0.1-0.6
		c-0.1-0.2-0.2-0.5-0.4-0.6c-0.3-0.2-0.7-0.3-1-0.2c-0.8,0.2-1.5,0.8-1.8,1.6c-0.4,0.9-0.6,1.8-0.5,2.8c0.1,2,1.2,3.8,2.7,4.2
		c0.5,0.1,1.1,0,1.6-0.3C226.7,257.3,226.7,257,226.7,257z"/>
	<path id="elw2hofnnu1di" class="st5" d="M275.7,245.8c0,1.1-0.9,2-2,2.1c-1.1,0.1-2.1-0.7-2.1-1.8c0,0,0,0,0,0c0-1.1,0.9-2.1,2-2.1
		C274.7,243.9,275.6,244.7,275.7,245.8C275.7,245.8,275.7,245.8,275.7,245.8z"/>
	<path id="elvz23geqr73c" class="st5" d="M277.7,243.8c-0.3,0.3-1.8-0.9-4.1-0.9s-3.9,1.1-4.1,0.9s0.1-0.6,0.9-1.1
		c1-0.7,2.1-1,3.3-1c1.2,0,2.3,0.3,3.2,1C277.6,243.1,277.9,243.6,277.7,243.8z"/>
	<path id="elu6c33asagk" class="st5" d="M253.7,245.8c0,1.1-0.9,2-2,2.1c-1.1,0.1-2.1-0.7-2.1-1.8c0,0,0,0,0,0c0-1.1,0.9-2.1,2-2.1
		C252.7,243.9,253.6,244.7,253.7,245.8C253.7,245.8,253.7,245.8,253.7,245.8z"/>
	<path id="eltvei4fofvz" class="st5" d="M255.7,244.2c-0.3,0.3-1.8-0.9-4.1-0.9s-3.9,1.1-4.1,0.9c-0.1-0.1,0.1-0.6,0.9-1.1
		c1-0.7,2.1-1,3.3-1c1.2,0,2.3,0.3,3.2,1C255.6,243.6,255.9,244.1,255.7,244.2z"/>
	<path id="elb5ikd8gg26" class="st5" d="M263.9,260.8c1.2-0.4,2.4-0.6,3.6-0.7c0.6-0.1,1.1-0.2,1.2-0.6c0-0.6-0.1-1.2-0.4-1.7
		l-1.7-4.4c-2.4-6.2-4-11.3-3.8-11.4s2.4,4.9,4.7,11c0.6,1.5,1.1,3,1.6,4.4c0.4,0.7,0.5,1.5,0.3,2.2c-0.2,0.4-0.5,0.7-0.9,0.8
		c-0.3,0.1-0.7,0.1-1,0.1C266.3,260.9,265.1,260.9,263.9,260.8z"/>
	<path id="elb0cfwzlyft" class="st5" d="M257.3,262.3c0.4,0,0.4,2.4,2.5,4.1s4.7,1.5,4.7,1.8c0,0.1-0.6,0.5-1.7,0.5
		c-1.4,0-2.8-0.5-3.9-1.4c-1.1-0.9-1.7-2.1-1.9-3.5C256.8,262.9,257.1,262.3,257.3,262.3z"/>
	<path id="elgly14k6u4s" class="st5" d="M276.9,239.8c-0.4,0.5-1.9,0-3.8,0s-3.4,0.3-3.8-0.2c-0.2-0.3,0.1-0.8,0.8-1.3
		c1.9-1.2,4.3-1.1,6.1,0.2C276.9,239,277.1,239.6,276.9,239.8z"/>
	<path id="elpgltc7v4bji" class="st5" d="M252.8,236.1c-0.3,0.3-0.8,0.2-1.6,0c-1.8-0.4-3.7-0.5-5.5-0.2c-0.8,0.1-1.3,0.2-1.6-0.1
		s0-0.9,0.8-1.6c2.2-1.6,5.2-1.5,7.2,0.2C252.9,235.2,253.1,235.8,252.8,236.1z"/>
	<path id="el3coed45lgep" class="st5" d="M281.2,227.7c-7,1.9-14.4,1.5-21.2-1.1c-7.6-2.9-16.1-3.8-17.8-2.1s-1.3,9.1-8.2,11.9
		c0,0,1.9,14.1-3.8,14.1s-4.4-22.2-4.4-22.2l13.1-8.1l14.7-4.3l14.1-1.4l13.5,2.7V227.7z"/>
	<path id="elezj8eq444li" class="st6" d="M318.8,344.3c0,0,25.4,26.1,34.3,22.2c24.3-10.5,44.1-32.7,50.9-40.7
		c0.3-1.5,0.6-3.3,0.8-5.4c0.2-1.8,0.1-3.7-0.3-5.4c-0.4-2.2-1.1-4.4-2.1-6.5c-1.1-1.8,0.5-3.9,2.2-3.2s6,5.5,6.9,12.1
		c0.4,1.5,1.9,2.3,3.4,1.9c0.1,0,0.3-0.1,0.4-0.2c4.4-1.5,19.4-7.3,22-7.9c2.4-0.5,5.2-0.4,3.6,1.3s-12.6,8.2-12.6,8.2
		s14.3-8.7,15.5-6.6c0.8,1.5-2.2,4.9-12.2,9.7c0,0,11.8-7.1,13.8-6.9c4.5,0.5-9.6,9.2-9.6,9.2c10-6,9.5-6.4,10.6-5.2
		c0.8,0.9-0.9,2.9-5.9,6.9c-4,3.3-7.5,7.4-13.3,12.7l0,0c0,0-60,83.4-97.8,57.8c-20.4-13.8-25.9-20.8-37.5-31.2"/>
	<path id="el4ajx6y5akp1" class="st7" d="M429.9,330c0.1,0.3,3.3-1.5,7-3.8s6.6-4.5,6.4-4.7s-3.3,1.5-7,3.8S429.7,329.8,429.9,330z"
		/>
	<path id="eli1eu1z804es" class="st7" d="M427.2,326.5c0.1,0.3,3.6-1.4,7.7-3.7s7.3-4.3,7.2-4.6s-3.6,1.4-7.7,3.7
		S427,326.2,427.2,326.5z"/>
	<path id="elb0xts44p2g8" class="st7" d="M424.4,322.7c0.1,0.3,3.4-1.2,7.3-3.3s7-4,6.8-4.3s-3.4,1.2-7.3,3.3
		S424.2,322.5,424.4,322.7z"/>
	<path id="el38y242knfdk" class="st6" d="M168.7,365c0,0-12.8,34.1-22.5,34.1c-26.5,0.1-53.5-12.4-62.9-16.9
		c-0.9-1.3-1.8-2.8-2.9-4.6c-0.9-1.6-1.6-3.3-1.9-5.1c-0.5-2.2-0.7-4.5-0.6-6.8c0.3-2.1-2-3.4-3.3-2s-3.3,7.4-1.5,13.9
		c0.2,1.5-0.8,2.9-2.3,3.1c-0.1,0-0.3,0-0.4,0c-4.6,0.4-20.6,1.1-23.3,1.6c-2.4,0.5-4.9,1.7-2.8,2.7c1.6,0.7,8.7,1.7,12.5,2.1
		c-4.6-0.5-14.3-1.4-14.4,0.4c-0.1,1.1,1.6,2.3,5.8,3.1c-2.9-0.2-5.4-0.2-6.1,0.2c-4,2.3,12.5,4.6,12.5,4.6
		c-11.5-1.5-11.3-2.1-11.8-0.6c-0.4,1.1,2,2.3,8.1,4c5,1.4,9.8,3.8,17.2,6.3c0,0,88.4,52.4,112.7,13.8
		c13.1-20.8,15.4-29.4,21.8-43.6L168.7,365z"/>
	<path id="el6ca0rselu7" class="st7" d="M61.2,396.4c0,0.3-3.6,0-8-0.7s-7.8-1.5-7.8-1.8s3.6,0,8,0.7S61.3,396.1,61.2,396.4z"/>
	<path id="elhnrrzbsxmli" class="st7" d="M62.3,392c0,0.3-3.8,0.2-8.5-0.3s-8.4-1-8.4-1.3s3.8-0.2,8.5,0.3S62.3,391.8,62.3,392z"/>
	<path id="el3gu5xoeu1cx" class="st7" d="M63.3,387.5c0,0.3-3.6,0.2-8.1-0.1s-8-0.9-8-1.2s3.6-0.2,8.1,0.1S63.4,387.2,63.3,387.5z"
		/>
	<path id="elalydr0y2qqk" class="st8" d="M348.8,366.6l-41.8-46.7c-11.6-11.5-17.9-14.9-34.1-16.8c-2.6-0.3-4.8-0.5-6.3-0.7
		c-12.1,3.8-25.2,3.8-37.3,0l0,0c-5.8,0.2-10.6,2-15.4,3c-15.5,3-26.6,14.2-29.7,24.6l0,0l-34.9,68.1l29.4,24.8l26.9-42.7l1.6,45.5
		l-1.7,34l103.3,0.3l-4.7-79.7l27.8,22.6L348.8,366.6z"/>
	<path id="el6u2ar7uyp9n" class="st5" d="M206.1,351.6c0.1,0.5,0.1,1,0.1,1.5c0,1,0.1,2.4,0.1,4.1c0,3.5,0.1,8.3,0,13.6
		s-0.1,10.1-0.2,13.6c0,1.8-0.1,3.2-0.1,4.1c0,0.5,0,1-0.1,1.5c-0.1-0.5-0.2-1-0.1-1.5c0-1-0.1-2.4-0.1-4.1c-0.1-3.5-0.1-8.3,0-13.6
		s0.1-10.1,0.2-13.6c0-1.7,0.1-3.1,0.1-4.1C205.9,352.6,206,352.1,206.1,351.6z"/>
	<path id="elxybj0ayqnd" class="st5" d="M305.9,410c-0.2-0.8-0.3-1.6-0.3-2.3c-0.1-1.6-0.3-3.8-0.6-6.4c-0.5-5.4-1-12.9-1.6-21.1
		s-1.1-15.7-1.4-21.1c-0.1-2.6-0.3-4.8-0.3-6.4c-0.1-0.8-0.1-1.6,0-2.4c0.2,0.8,0.3,1.6,0.3,2.3c0.1,1.6,0.3,3.8,0.6,6.4
		c0.5,5.4,1,12.9,1.6,21.1s1.1,15.7,1.4,21.2c0.1,2.6,0.3,4.8,0.3,6.4C305.9,408.5,305.9,409.2,305.9,410z"/>
	<g id="elalgvifndpiv">
		<g id="elxv5cpyk1kb" class="st9">
			<path id="elvu85c9cg82g" class="st0" d="M321.2,335.6c0,0.1-31.3,0.3-70,0.3s-70-0.1-70-0.3s31.3-0.3,70-0.3
				S321.2,335.5,321.2,335.6z"/>
		</g>
	</g>
	<g id="elgaenc6uvvco">
		<g id="el7qe8lkadcva" class="st9">
			<path id="elwpqjfcstyel" class="st0" d="M332,377.1c0,0.1-38.2,0.3-85.3,0.3s-85.3-0.1-85.3-0.3s38.2-0.3,85.3-0.3
				S332,377,332,377.1z"/>
		</g>
	</g>
	<g id="elrkbql35og8l">
		<g id="elazp9pqof83" class="st9">
			<path id="elnxebfn8hwj" class="st0" d="M306.7,424.4c0,0.1-22.2,0.3-49.5,0.3s-49.5-0.1-49.5-0.3s22.2-0.3,49.5-0.3
				S306.7,424.3,306.7,424.4z"/>
		</g>
	</g>
	<g id="eltzrc27eh9bj">
		<g id="el0f7x56zhwbtu" class="st9">
			<path id="elajayvre140s" class="st0" d="M218.8,459.8c-0.1,0-0.3-34.8-0.3-77.8s0.1-77.8,0.3-77.8S219,339,219,382
				S218.9,459.8,218.8,459.8z"/>
		</g>
	</g>
	<g id="el5enacko2yvq">
		<g id="elbc8fcm4qg8i" class="st9">
			<path id="elm2yqejcjs1" class="st0" d="M278.6,459.8c0,0,0-0.1,0-0.4s0-0.7,0-1.2c0-1.1,0-2.6,0-4.5c0-4-0.1-9.7-0.1-16.7
				c-0.1-14.1-0.3-33.6-0.5-55.2s-0.3-41.1-0.3-55.2c0-7,0-12.7,0-16.7c0-2,0-3.5,0-4.5c0-0.5,0-0.9,0-1.2c0-0.1,0-0.3,0-0.4
				c0,0,0,0.1,0,0.4s0,0.7,0,1.2c0,1.1,0,2.6,0,4.5c0,4,0.1,9.7,0.1,16.7c0.1,14.1,0.3,33.6,0.5,55.2s0.3,41,0.3,55.2
				c0,7,0,12.8,0,16.7c0,2,0,3.5,0,4.5c0,0.5,0,0.9,0,1.2C278.6,459.6,278.6,459.7,278.6,459.8z"/>
		</g>
	</g>
	<g id="eltpn3088tnog">
		<g id="eldivvc1ak4p7" class="st9">
			<path id="eltixk8r1flbk" class="st0" d="M320.9,393.3c-0.1,0-0.3-12.6-0.3-28.1s0.1-28.1,0.3-28.1s0.3,12.6,0.3,28.1
				S321.1,393.3,320.9,393.3z"/>
		</g>
	</g>
	<g id="el8n7pk6ahhld">
		<g id="el2e30no03l0y" class="st9">
			<path id="elo3f2zj8sy9" class="st0" d="M171.9,404.9c-0.1,0-0.3-11.9-0.3-26.5s0.1-26.5,0.3-26.5s0.3,11.9,0.3,26.5
				S172.1,404.9,171.9,404.9z"/>
		</g>
	</g>
	<polyline id="elk94uegd23j" class="st8" points="225.4,303.8 231.1,291.8 249.8,305 268.2,292.6 274.6,303.1 256.2,315.1 
		243.9,315.1 225.4,305.2 	"/>
	<path id="ell7hq5jok71b" class="st5" d="M249.8,305c-0.1,0-0.2,0.1-0.4,0.1c-0.3,0-0.7,0.1-1,0.3c-1.2,0.5-2.1,1.3-2.8,2.4
		c-1,1.6-1.9,3.3-2.6,5c-0.4,1-0.9,2-1.4,3.1c-0.6,1.1-1.3,2.1-2.1,3l-0.2,0.2l-0.2-0.2l-1.1-1.1c-3.7-3.9-6.9-7.6-9-10.3
		c-1.1-1.4-2-2.5-2.5-3.3c-0.3-0.4-0.6-0.8-0.9-1.3c0.4,0.3,0.7,0.7,1,1.1l2.7,3.2c2.3,2.7,5.4,6.3,9.1,10.2l1.1,1.1h-0.4
		c0.8-0.8,1.5-1.8,2.1-2.9c0.6-1,1-2,1.4-3c0.7-1.8,1.6-3.4,2.7-5c0.7-1.1,1.8-1.9,3-2.3c0.3-0.1,0.7-0.2,1-0.2
		C249.6,304.9,249.8,304.9,249.8,305z"/>
	<path id="elndi0kjrxmup" class="st5" d="M274.3,303.3c-0.3,0.4-0.6,0.8-0.9,1.2c-0.6,0.8-1.5,1.8-2.8,3.1
		c-3.2,3.3-6.6,6.2-10.3,8.8c-0.8,0.6-1.6,1.1-2.4,1.6l-0.4,0.2v-0.4c-0.2-2.1-0.7-4.2-1.5-6.1c-0.6-1.6-1.4-3.1-2.5-4.4
		c-0.7-0.9-1.6-1.6-2.6-2c-0.7-0.3-1.2-0.3-1.2-0.3s0.1,0,0.3,0c0.3,0,0.6,0.1,0.9,0.1c1.1,0.4,2.1,1,2.9,2c1.1,1.3,2,2.8,2.6,4.5
		c0.8,2,1.4,4.1,1.6,6.3l-0.4-0.2c0.8-0.5,1.6-1.1,2.4-1.6c3.7-2.6,7.1-5.5,10.3-8.7c1.2-1.2,2.2-2.2,2.9-2.9
		C273.6,304,274,303.7,274.3,303.3z"/>
	<path id="elwih331nal6r" class="st5" d="M256.9,459.8c0,0,0-0.1,0-0.4s0-0.7,0-1.2c0-1,0-2.6-0.1-4.5c0-3.9-0.1-9.6-0.2-16.5
		c-0.2-14-0.6-33.2-1.6-54.5s-2.3-40.5-3.4-54.4c-0.6-6.9-1-12.6-1.3-16.5c-0.1-1.9-0.3-3.4-0.4-4.5c0-0.5-0.1-0.9-0.1-1.2
		c0-0.1,0-0.3,0-0.4c0,0,0,0.1,0.1,0.4s0.1,0.7,0.1,1.2c0.1,1,0.3,2.5,0.4,4.5c0.4,3.9,0.9,9.5,1.5,16.5c1.2,13.9,2.6,33.1,3.5,54.4
		s1.4,40.5,1.5,54.5c0.1,7,0.1,12.6,0,16.5c0,1.9,0,3.4,0,4.5c0,0.5,0,0.9,0,1.2C256.9,459.6,256.9,459.7,256.9,459.8z"/>
	<g id="el32trgqk8o2o">
		<g id="el6qwq52y1z7x" class="st10">
			<path id="el9gwxgoklr6s" d="M249.3,305c2.3,1.3,3.1,4.2,3.1,6.8s-0.6,5.2-0.4,7.8c0,1.4,0.6,2.7,1.7,3.5c1.6,1,3.6,0.1,5.2-0.8
				c3.5-1.9,7-3.9,9.9-6.6c2.8-2.8,4.2-6.7,4-10.6c-4.8,5.1-9.6,8.3-14.9,12.3c-0.4-2.7-1.3-5.4-2.6-7.8
				C253.9,307.1,252,304.7,249.3,305"/>
		</g>
	</g>
	<g id="elx54byrgoctl">
		<g id="elqfnxdnddvei" class="st10">
			<path id="elcqqgqh9xzhb" d="M232.2,310.9c1.8,3.5,3.6,7,6.7,9.5c1.4,1.1,3.3,1.9,4.7,0.9c1.1-0.8,1.3-2.4,1.4-3.8
				c0.2-3.5,1.3-7.6,1.5-11.1c-2.8,3.1-4.3,8.7-7.3,12.5c-3-1.9-4.7-5.1-6.9-7.9"/>
		</g>
	</g>
	<g id="elrnbyeanw88">
		<g id="elt2bt497yh6j" class="st10">
			<path id="el7c244560wb3" d="M323,395l13.9-25.9c-4.1,0.4-6.9,4.3-9,7.9s-4.7,7.5-8.8,8.2c-2.8,0.5-5.7-0.8-8.2-2.3
				s-4.9-3.2-7.7-3.9L323,395z"/>
		</g>
	</g>
	<g id="elxcgr6e0tcon">
		<g id="el7c8zpnegmt3" class="st10">
			<path id="el6ttehzot1u8" d="M200.6,388c0,0-9.7,10.2-16.2,11.7c-6.7,1.5-13.6,0-19.1-4c-0.4-0.4-0.9-0.6-1.4-0.8
				c-0.6-0.1-1.1,0.2-1.3,0.8c0,0.5,0.3,0.9,0.7,1.2c6.7,6.2,13.6,12.1,20.8,17.7L200.6,388z"/>
		</g>
	</g>
	<g id="el4qi1tnfdfv4">
		<g id="elh3kzbf4ib6" class="st10">
			<path id="el5lh7ck55sl8" d="M246.3,318.4c-3.7,29.4-6.1,58.9-7.2,88.5c-0.2,4.6-0.3,9.4,1.4,13.7c1.9,5,6,8.9,10,12.6
				c1.7,1.6,4,3.2,6.1,2.3c0.8-0.4,1.5-1.1,2-1.8c2.5-3.2,4.8-6.7,5.8-10.7c2.9-12.5-8.9-24.8-6.2-37.3"/>
		</g>
	</g>
	<path id="elrf28648kmoi" class="st11" d="M245.4,308.2l8.8-0.2l2.4,4.8l-2.8,7.9h-7.2l-3.8-7.1L245.4,308.2z"/>
	<polygon id="el7l8fk2bwp3c" class="st11" points="246.5,320.6 242.4,421.7 254.4,434.7 265.5,419 253.7,320.6 	"/>
	<path id="elg9u3fq2mlxb" class="st5" d="M253.3,320.8c-1.1,0.1-2.2,0.1-3.3,0c-1.1,0.1-2.2,0-3.3-0.1
		C248.8,320.1,251.1,320.1,253.3,320.8z"/>
	<path id="elu5ljrgqx0li" class="st5" d="M255.2,309.6c-0.3,0.6-0.7,1.1-1.1,1.5c-1,1.1-2.1,2.2-3.3,3.1c-1.2,0.9-2.5,1.8-3.8,2.5
		c-0.5,0.3-1.1,0.6-1.8,0.7c-0.1-0.1,2.5-1.5,5.2-3.6S255.1,309.5,255.2,309.6z"/>
	<path id="eltrp7fdki18s" class="st5" d="M254.8,330.5c-1.3,1.7-2.8,3.2-4.3,4.6c-1.4,1.6-3,3-4.7,4.3c1.3-1.7,2.8-3.2,4.3-4.6
		C251.6,333.2,253.1,331.8,254.8,330.5z"/>
	<path id="elrrulnql3d2p" class="st0" d="M255.4,337.8c-1.5,1.8-3.1,3.5-4.8,5.1c-1.6,1.7-3.3,3.3-5.2,4.8c1.5-1.8,3.1-3.6,4.8-5.1
		C251.8,340.8,253.6,339.2,255.4,337.8z"/>
	<path id="elua4j0ohzwq7" class="st5" d="M256.6,344.5c-1.7,2.1-3.6,4.1-5.6,5.9c-1.9,2-3.9,3.8-6,5.6c1.7-2.1,3.6-4.1,5.6-6
		C252.4,348.1,254.4,346.2,256.6,344.5z"/>
	<path id="ela6w7yzdand" class="st0" d="M257.4,351.6c-1.9,2.3-4,4.4-6.1,6.5c-2,2.1-4.2,4.2-6.5,6.1c1.9-2.3,4-4.4,6.1-6.5
		C252.9,355.5,255.1,353.5,257.4,351.6z"/>
	<path id="elf2clcwznslt" class="st5" d="M258.1,358.7c-2.1,2.4-4.3,4.7-6.6,6.9c-2.2,2.3-4.5,4.5-7,6.6c2.1-2.5,4.3-4.8,6.6-7
		C253.3,362.9,255.6,360.8,258.1,358.7z"/>
	<path id="elnl0gxhqf6jj" class="st0" d="M259,365.7c0.1,0.1-3.2,3.5-7.3,7.6s-7.6,7.4-7.7,7.3c2.3-2.7,4.7-5.2,7.3-7.6
		C255.5,368.8,258.9,365.6,259,365.7z"/>
	<path id="elh0spoogeo98" class="st5" d="M259.8,372.8c0.1,0.1-3.4,3.8-7.8,8.2s-8.1,7.9-8.2,7.8s3.4-3.8,7.8-8.1
		S259.6,372.7,259.8,372.8z"/>
	<path id="el40gpiop4l7o" class="st0" d="M260.6,379.8c0.1,0.1-3.6,4-8.4,8.7s-8.6,8.4-8.7,8.3s3.6-4,8.4-8.7
		S260.5,379.7,260.6,379.8z"/>
	<path id="el22h9r3s2epi" class="st5" d="M261.2,387.1c0.1,0.1-3.9,4.2-8.9,9.2s-9.1,9-9.3,8.9s3.9-4.2,8.9-9.2
		S261.1,387,261.2,387.1z"/>
	<path id="elc6vuzfla1kl" class="st0" d="M262.1,394c0.1,0.1-4.1,4.5-9.4,9.7s-9.7,9.5-9.8,9.4s4.1-4.5,9.4-9.7
		C257.7,398.1,262,393.9,262.1,394z"/>
	<path id="elmuukksu396f" class="st5" d="M263.7,400.4c0.1,0.1-4.6,5-10.5,10.8s-10.8,10.6-10.9,10.5s4.6-5,10.5-10.8
		S263.6,400.3,263.7,400.4z"/>
	<path id="elwz8z25qv5ua" class="st0" d="M246.1,425.8c-0.1-0.1,3.9-4.3,8.9-9.3c5-5,9.1-9,9.3-8.9s-3.9,4.3-8.9,9.3
		S246.2,425.9,246.1,425.8z"/>
	<path id="el3g4jwh4gyod" class="st5" d="M250.7,430.4c-0.1-0.1,3-3.5,7-7.7c2.3-2.6,4.8-5,7.3-7.3c-2.2,2.7-4.5,5.2-7,7.7
		C255.8,425.6,253.3,428.1,250.7,430.4z"/>
	<path id="elffzifc4tgn7" class="st0" d="M253.9,323.7c-1.1,1.5-2.4,2.9-3.8,4.1c-1.3,1.4-2.7,2.7-4.2,3.8c1.1-1.5,2.4-2.9,3.8-4.2
		C251,326.1,252.4,324.9,253.9,323.7z"/>
	<path id="elt16cid3j8lq" class="st8" d="M150.1,397.9c-1.5-0.1-2-2.1-1.5-3.5s1.6-2.5,2-3.9c0.3-0.8,0.4-1.7,1.1-2.2
		c0.8-0.5,1.8-0.5,2.5,0.1c4.1,3.5,7.1,6.9,11.5,10.6c4.3,3.6,8.9,8.3,13.4,11.6c2.5,1.9,5.6,3.8,6,7c0.2,2.7-1.8,5.1-4.5,5.4
		c-2.6,0.2-4.8-1.6-6.7-3.4c-8.1-7.2-16.1-14.4-24.2-21.5"/>
	<path id="elr2m7paxbebe" class="st5" d="M183.5,414.3c-0.4-0.3-0.9-0.6-1.2-0.9c-0.8-0.6-1.9-1.4-3.4-2.4c-1.7-1.2-3.3-2.5-4.9-3.8
		l-5.6-5.1c-4-3.6-7.5-6.9-10.1-9.3l-3-2.9c-0.4-0.3-0.7-0.7-1-1.1c0.4,0.3,0.8,0.6,1.2,1l3.1,2.8c2.6,2.3,6.2,5.6,10.2,9.2
		c2,1.8,3.8,3.5,5.6,5.1c1.5,1.4,3.1,2.7,4.8,3.9c1.4,1.1,2.5,1.9,3.3,2.6C182.8,413.5,183.1,413.9,183.5,414.3z"/>
	<path id="eli81mveg6lol" class="st5" d="M180.8,416.6c-0.5-0.2-0.9-0.5-1.3-0.7c-0.8-0.5-2-1.3-3.4-2.2c-2.8-1.9-6.7-4.7-10.8-8
		s-7.6-6.4-10.1-8.8c-1.3-1.2-2.3-2.1-2.9-2.8c-0.4-0.3-0.7-0.7-1-1.1c0.4,0.3,0.8,0.6,1.1,1l3,2.7c2.6,2.3,6.1,5.4,10.2,8.6
		s7.9,6.1,10.7,8.1l3.3,2.4C180,415.9,180.4,416.2,180.8,416.6z"/>
	<g id="elzc6h4kncr1f">
		<g id="el9lakbza806t" class="st9">
			<path id="el6cftduqoz85" class="st0" d="M163,396.7c-0.9,1.3-2,2.5-3.2,3.5c-1.1,1.2-2.3,2.3-3.6,3.2
				C158.3,401,160.5,398.7,163,396.7z"/>
		</g>
	</g>
	<g id="el1ukxami3x7x">
		<g id="el9iv7h5vqkg" class="st9">
			<path id="elwew2mrpmru" class="st0" d="M178.7,410.8c-1,1.3-2.2,2.6-3.4,3.7c-1.2,1.2-2.4,2.3-3.8,3.3c1-1.3,2.2-2.6,3.4-3.7
				C176,412.8,177.3,411.7,178.7,410.8z"/>
		</g>
	</g>
	<g id="elmlequcux9pb">
		<g id="eld8x1sm08s18" class="st3">
			<path id="el9qfw1wy8gwp" class="st0" d="M238.3,297.5c-1,2-2.1,3.9-3.4,5.8c-1.1,1.9-2.4,3.8-3.8,5.5c1-2,2.1-3.9,3.4-5.8
				C235.6,301,236.9,299.2,238.3,297.5z"/>
		</g>
	</g>
	<g id="elf7faozlojg">
		<g id="el3rt4pzlown" class="st3">
			<path id="el8y04wdxzb2e" class="st0" d="M268,309.1c-1.1-1.9-2.2-3.9-3-5.9c-1-2-1.8-4-2.5-6.1
				C264.6,300.9,266.5,304.9,268,309.1L268,309.1z"/>
		</g>
	</g>
	<path id="el447vptwbp1x" class="st8" d="M333.3,400.4c-0.6,1.3-1.9,2.1-3.3,1.9c-1.5-0.2-2.8-1-4.3-1.1c-0.8-0.1-1.8,0-2.4-0.6
		c-0.5-0.7-0.7-1.6-0.5-2.5c0.9-5.5,3.9-10.5,7.1-15.1s6.8-9,9-14.2c1.3-2.9,2.5-6.4,5.5-7.4c2.6-0.8,5.4,0.6,6.3,3.2
		c0.8,2.5-0.5,5.1-1.8,7.3L333.3,400.4"/>
	<path id="elznt0r0fd6r" class="st5" d="M343.3,366.7c-0.1,0.5-0.3,1-0.5,1.4c-0.3,0.9-0.8,2.2-1.5,3.7c-1.3,3.1-3.2,7.5-5.4,12.1
		s-4.4,8.9-6,11.9c-0.8,1.5-1.5,2.7-2,3.5c-0.2,0.4-0.5,0.9-0.8,1.3c0.2-0.5,0.4-0.9,0.6-1.3l1.8-3.6c1.5-3,3.6-7.2,5.8-11.9
		s4.1-9,5.5-12.1c0.7-1.5,1.2-2.7,1.6-3.7C342.8,367.5,343,367.1,343.3,366.7z"/>
	<path id="elsno1g9hqu9" class="st5" d="M341.6,361.1c-0.2,0.5-0.5,0.9-0.8,1.4l-2.2,3.6c-1.8,3-4.3,7.2-6.9,12s-4.8,9.1-6.3,12.3
		l-1.8,3.8c-0.2,0.5-0.4,0.9-0.7,1.4c0.1-0.5,0.3-1,0.5-1.4c0.4-0.9,1-2.2,1.7-3.8c1.5-3.2,3.6-7.6,6.2-12.4s5.1-8.9,7-11.9
		c1-1.5,1.8-2.7,2.3-3.5C340.9,362,341.2,361.5,341.6,361.1z"/>
	<g id="el4skp2n8exaf">
		<g id="elto38z3rsngk" class="st3">
			<path id="ele0vbovpeno9" class="st0" d="M336.7,393.3c-1.9-0.3-3.7-0.8-5.4-1.7c-1.8-0.7-3.4-1.7-4.9-2.9
				c0.1-0.1,2.3,1.2,5.1,2.4S336.8,393.2,336.7,393.3z"/>
		</g>
	</g>
	<g id="elus8sh1equqn">
		<g id="elwqnn3nvdobp" class="st3">
			<path id="elotij2zl0yyj" class="st0" d="M349,372.6c-1.8-0.9-3.6-1.9-5.3-3c-1.8-1-3.5-2.1-5.2-3.3c1.9,0.8,3.7,1.7,5.4,2.8
				C345.8,370.2,347.4,371.3,349,372.6z"/>
		</g>
	</g>
</g>
<g id="freepik--Stars--inject-294">
	<polygon id="elokw4tql3a6c" class="st11" points="364.7,55 362.7,58.7 359.1,60.7 362.7,62.7 364.7,66.3 366.7,62.7 370.3,60.7 
		366.7,58.7 	"/>
	<polygon id="el63rma5i9n2w" class="st11" points="436.2,271.3 434.2,274.9 430.5,276.9 434.2,278.9 436.2,282.6 438.1,278.9 
		441.8,276.9 438.1,274.9 	"/>
	<polygon id="el0u2rv4p9yq" class="st11" points="114.1,66.4 112.1,70 108.4,72 112.1,74 114.1,77.6 116,74 119.7,72 116,70 	"/>
	<polygon id="el93yyho2fiy6" class="st11" points="409.9,170.5 408.7,172.8 406.4,174 408.7,175.2 409.9,177.4 411.1,175.2 
		413.4,174 411.1,172.8 	"/>
	<polygon id="eleiyk1vr5jan" class="st11" points="247.3,106.9 246.1,109.2 243.9,110.4 246.1,111.6 247.3,113.9 248.5,111.6 
		250.8,110.4 248.5,109.2 	"/>
	<polygon id="elrmrg90zgpa" class="st11" points="177.5,164.6 176.4,166.6 174.4,167.7 176.4,168.8 177.5,170.8 178.6,168.8 
		180.6,167.7 178.6,166.6 	"/>
	<polygon id="eluigxrfu7hoq" class="st11" points="309.4,260.5 308.3,262.5 306.3,263.6 308.3,264.7 309.4,266.7 310.5,264.7 
		312.5,263.6 310.5,262.5 	"/>
	<polygon id="elkpirv1i31k8" class="st11" points="117.6,279.3 116.5,281.3 114.5,282.4 116.5,283.5 117.6,285.5 118.7,283.5 
		120.7,282.4 118.7,281.3 	"/>
</g>
<g id="freepik--floating-money--inject-294">
	<path id="el0p44blu184en" class="st12" d="M72.4,110.1c0,0,6-3.2,12.7,1.6c4.1,3,12.9,7.6,15.6,4.8l3.3-10.8
		c-4.4-0.9-8.5-2.8-12.1-5.5c-5.3-4.2-15.9-4-15.9-4L72.4,110.1z"/>
	<g id="elin7v9dplwrf">
		<g id="el03r0j031adr2" class="st13">
			<path id="elyoghssfiga" class="st14" d="M91.2,101.7c2.6,1.5,3.5,4.8,2,7.3c-0.1,0.2-0.3,0.5-0.4,0.7c-1.8,2.1-6,1.6-8.1-0.2
				c-2.1-1.8-2.4-5-0.6-7.1c0,0,0,0,0,0C85.8,100.1,88.8,100.3,91.2,101.7z"/>
		</g>
	</g>
	<path id="elq70rzxbmzpb" class="st12" d="M91.1,103.8c0,0.1-0.3,0-0.6-0.1c-0.4-0.2-0.9-0.3-1.4-0.4c-0.3-0.1-0.6-0.1-0.9,0
		c-0.3,0.1-0.5,0.2-0.7,0.4c-0.1,0.2-0.2,0.5-0.1,0.8c0.1,0.2,0.3,0.4,0.8,0.6c0.2,0.1,0.4,0.2,0.7,0.3c0.3,0.1,0.5,0.3,0.7,0.5
		c0.1,0.1,0.2,0.3,0.3,0.4c0.1,0.2,0.1,0.3,0.2,0.5c0.1,0.3,0,0.7-0.1,1c-0.1,0.3-0.3,0.5-0.6,0.7c-0.2,0.2-0.5,0.3-0.8,0.3
		c-0.4,0.1-0.9,0-1.3-0.1c-0.3-0.1-0.6-0.3-0.9-0.4c-0.2-0.1-0.4-0.3-0.5-0.4c-0.3-0.3-0.4-0.4-0.3-0.5s0.3,0,0.6,0.1
		c0.4,0.2,0.9,0.3,1.4,0.4c0.3,0.1,0.6,0.1,0.8,0c0.2-0.1,0.4-0.2,0.5-0.5c0-0.1,0-0.2,0-0.3c0,0,0-0.1,0-0.1c0-0.1-0.1-0.1-0.1-0.2
		c-0.3-0.2-0.7-0.5-1.1-0.6c-0.3-0.1-0.5-0.3-0.7-0.5c-0.1-0.1-0.2-0.2-0.3-0.4c-0.1-0.1-0.2-0.3-0.2-0.5c-0.3-0.6-0.2-1.4,0.2-1.9
		c0.3-0.4,0.9-0.7,1.4-0.8c0.4,0,0.8,0,1.2,0.1c0.5,0.2,1,0.5,1.4,0.9C91,103.6,91.1,103.7,91.1,103.8z"/>
	<path id="eltk7pwzxuhah" class="st12" d="M89.1,101.5c-0.1,1.4-0.5,2.7-1,4c-0.3,1.3-0.9,2.6-1.6,3.8c0.1-1.4,0.5-2.7,1-4
		C87.8,103.9,88.4,102.7,89.1,101.5z"/>
	<path id="eltegxxw2x61q" class="st12" d="M89.9,102c-0.1,1.2-0.4,2.5-0.9,3.6c-0.6,2-1.3,3.5-1.4,3.4c0.1-1.2,0.4-2.5,0.9-3.6
		C88.7,104.2,89.2,103.1,89.9,102z"/>
	<g id="elgzhzqrhk7mu">
		<g id="elbucy63b6sh" class="st3">
			<path id="elu2r3l5fug6" class="st14" d="M102.8,106.5l-3.1,9.8h-0.1c-4.8,1-10.9-3.2-14.9-6c-0.7-0.5-1.4-0.9-1.9-1.3
				c-2.6-1.6-5.9-1.7-8.7-0.3l-0.3-0.1l3.1-10.6H77c5.8-0.8,11.7,0.9,16.3,4.7c3,2.6,9.3,3.8,9.3,3.8L102.8,106.5z M99.4,115.9
				l2.9-9.2c-1.1-0.2-6.5-1.4-9.3-3.9c-4.4-3.7-10.2-5.4-15.8-4.6l-2.9,9.9c0.3-0.1,0.6-0.3,0.9-0.4c2.6-0.8,5.4-0.5,7.8,0.9
				l1.9,1.3C88.8,112.7,94.8,116.8,99.4,115.9z"/>
		</g>
	</g>
	<path id="elt3nwof67m1h" class="st12" d="M448.5,196.6c0,0-0.1,11.7-12.7,17.9c-7.8,3.9-21.8,13.5-19.7,19.7l13.5,13.6
		c0,0,7.2-9.1,17.9-13.8c10.6-4.6,18.7-20.8,18.7-20.8L448.5,196.6z"/>
	<g id="el9gizfe09i3g">
		<g id="elr4650fnlk4" class="st13">
			<path id="elkz1c2tkew9" class="st14" d="M446.2,231.7c-4.3,2.7-10,1.4-12.7-2.9c-0.2-0.4-0.4-0.7-0.6-1.1
				c-1.8-4.4,2.4-10.3,6.9-12.1c4.4-1.8,9.5,0.4,11.3,4.8C452.8,224.9,450.2,229.2,446.2,231.7z"/>
		</g>
	</g>
	<path id="elf5s0bsc280e" class="st12" d="M443,229.9c-0.1-0.1,0.2-0.4,0.7-0.8c0.6-0.5,1.2-1.1,1.8-1.7c0.3-0.4,0.5-0.9,0.6-1.3
		c0.1-0.4,0.1-0.9-0.1-1.3c-0.2-0.4-0.6-0.7-1.1-0.7c-0.6,0-1.1,0.2-1.5,0.6c-0.3,0.2-0.6,0.5-1,0.8c-0.4,0.3-0.9,0.5-1.4,0.7
		c-0.3,0.1-0.6,0.1-0.9,0.1c-0.3,0-0.6-0.1-0.9-0.2c-0.5-0.2-1-0.5-1.3-1c-0.6-0.8-0.8-1.8-0.4-2.8c0.2-0.7,0.6-1.3,1.2-1.8
		c0.4-0.4,0.9-0.7,1.4-0.9c0.3-0.2,0.7-0.3,1.1-0.5c0.6-0.2,1-0.2,1-0.1s-0.2,0.4-0.6,0.8c-0.6,0.5-1.2,1.1-1.8,1.7
		c-0.3,0.4-0.5,0.8-0.6,1.3c-0.1,0.4,0,0.8,0.3,1.2c0.1,0.1,0.3,0.2,0.5,0.3c0.1,0,0.2,0,0.3,0c0.1,0,0.2,0,0.3-0.1
		c0.6-0.3,1.2-0.7,1.8-1.1c0.4-0.3,0.8-0.6,1.3-0.8c0.3-0.1,0.5-0.2,0.8-0.2c0.3,0,0.6,0,0.9,0c1.1,0.2,2,0.9,2.5,1.9
		c0.4,0.9,0.4,1.9,0,2.7c-0.3,0.7-0.7,1.3-1.2,1.8c-0.7,0.6-1.5,1.1-2.4,1.4C443.5,230,443.1,230,443,229.9z"/>
	<path id="elzfdbg54215" class="st12" d="M448.1,228.7c-0.2,0.2-2.5-1.9-5.2-4.7s-4.7-5.2-4.5-5.4s2.5,1.9,5.2,4.7
		S448.3,228.5,448.1,228.7z"/>
	<path id="el253ymz6ntyp" class="st12" d="M446.8,229.5c-0.2,0.2-2.3-1.7-4.8-4.2s-4.2-4.7-4-4.9s2.3,1.7,4.8,4.2
		S447,229.3,446.8,229.5z"/>
	<g id="elb4cscv0x86w">
		<g id="elwbt4nswqa8" class="st3">
			<path id="el458lf3l22yr" class="st14" d="M429.6,245.3l-12.3-12.5l0.1-0.2c2.4-8,13.6-13.9,21-17.7c1.3-0.7,2.5-1.3,3.5-1.9
				c6.8-3.8,7.7-12.1,7.4-12.8l0.5-0.4l13.4,13.2l-0.1,0.2c-3.5,9.4-10.8,17-20.1,20.7c-6.4,2.4-13.2,10.9-13.2,11L429.6,245.3z
				 M418.1,232.7l11.5,11.7c1.2-1.5,7.3-8.6,13.3-10.9c9.1-3.7,16.2-11,19.7-20.2L450,201c0,0.6-0.1,1.1-0.2,1.7
				c-0.4,1.8-2,7.9-7.6,11c-1,0.6-2.2,1.2-3.5,1.9C431.4,219.3,420.5,225,418.1,232.7z"/>
		</g>
	</g>
	<path id="elzvhd4qzsyy" class="st12" d="M454.9,98.6c0,0-7.4,1.6-13.2-5.4c-3.6-4.4-11.6-11.9-15.4-9.7L419.6,94
		c4.4,2.3,8.3,5.5,11.4,9.4c4.5,6,15.9,8.9,15.9,8.9L454.9,98.6z"/>
	<g id="el1pferzdgfrs">
		<g id="elm6ikr9zokha" class="st13">
			<path id="elmektvt3m01" class="st14" d="M432.3,102.2c-2.3-2.4-2.3-6.2,0.1-8.5c0.2-0.2,0.4-0.4,0.6-0.5c2.6-1.8,6.9,0.1,8.6,2.6
				c1.8,2.6,1.1,6.1-1.5,7.8C437.5,105.4,434.5,104.4,432.3,102.2z"/>
		</g>
	</g>
	<path id="el2z5v5bvoedo" class="st12" d="M433,100c0.1-0.1,0.3,0.1,0.6,0.3c0.4,0.3,0.9,0.6,1.3,0.9c0.3,0.1,0.6,0.2,0.9,0.2
		c0.3,0,0.6-0.1,0.8-0.3c0.2-0.2,0.3-0.5,0.3-0.8c-0.1-0.4-0.3-0.7-0.6-0.9c-0.2-0.2-0.4-0.3-0.6-0.6c-0.2-0.2-0.5-0.5-0.6-0.8
		c-0.1-0.2-0.2-0.3-0.2-0.5c0-0.2,0-0.4,0-0.6c0-0.4,0.2-0.7,0.4-1c0.2-0.3,0.5-0.5,0.8-0.6c0.3-0.1,0.6-0.1,0.9-0.1
		c0.5,0.1,0.9,0.2,1.3,0.5c0.3,0.2,0.6,0.4,0.8,0.7c0.2,0.2,0.3,0.4,0.5,0.6c0.2,0.4,0.3,0.6,0.2,0.7s-0.3-0.1-0.6-0.3
		c-0.4-0.3-0.9-0.6-1.3-0.9c-0.3-0.1-0.6-0.2-0.9-0.2c-0.3,0-0.5,0.1-0.7,0.3c-0.1,0.1-0.1,0.2-0.1,0.3c0,0.1,0,0.1,0,0.2
		c0,0.1,0,0.1,0.1,0.2c0.3,0.4,0.6,0.7,1,1c0.2,0.2,0.5,0.5,0.7,0.7c0.1,0.2,0.2,0.3,0.3,0.5c0.1,0.2,0.1,0.4,0.1,0.6
		c0.1,0.7-0.3,1.4-0.8,1.9c-0.5,0.4-1.1,0.5-1.7,0.4c-0.5-0.1-0.9-0.2-1.3-0.5c-0.5-0.3-1-0.8-1.3-1.3C433,100.2,432.9,100,433,100z
		"/>
	<path id="elh3r4use4k9w" class="st12" d="M434.5,103c-0.1-0.1,0.8-1.9,2.2-4s2.6-3.7,2.8-3.6s-0.8,1.9-2.2,4S434.6,103.1,434.5,103
		z"/>
	<path id="elk4jsh0o0bjm" class="st12" d="M433.8,102.3c-0.1-0.1,0.7-1.7,2-3.6s2.4-3.4,2.5-3.3s-0.7,1.7-2,3.6
		S433.9,102.4,433.8,102.3z"/>
	<g id="elobihmt7p61">
		<g id="elq21ci8sfbf" class="st3">
			<path id="elvr195ozjyp" class="st14" d="M421.2,93.7l6.1-9.6h0.1c5.4,0.4,10.8,6.6,14.3,10.8c0.6,0.7,1.2,1.4,1.7,2
				c2.4,2.5,5.8,3.6,9.2,2.9l0.3,0.2l-6.5,10.4h-0.1c-6.5-0.9-12.3-4.4-16.1-9.8c-2.5-3.7-8.8-6.8-8.9-6.8L421.2,93.7z M427.6,84.5
				l-5.8,9c1.1,0.6,6.5,3.4,8.8,6.8c3.6,5.3,9.3,8.7,15.6,9.6l6-9.7c-0.4,0.1-0.7,0.1-1.1,0.1c-3,0.1-5.9-1.1-8-3.2
				c-0.5-0.6-1.1-1.3-1.7-2C438,91.1,432.8,85,427.6,84.5z"/>
		</g>
	</g>
	<path id="eljlgor1eaaf" class="st12" d="M364.1,106.3c0,0-9.3,7-21.9,0.9c-7.8-3.8-23.9-9.1-27.7-3.6l-2.6,19
		c0,0,11.6,0.2,21.9,5.8c10.1,5.6,27.9,2.2,27.9,2.2L364.1,106.3z"/>
	<g id="elw0siry4wz4">
		<g id="elma7lylbhasi" class="st13">
			<path id="elkkrqsunaj5r" class="st14" d="M334.9,125.8c-4.8-1.7-7.2-7-5.4-11.8c0.2-0.4,0.3-0.8,0.6-1.2
				c2.4-4.1,9.6-4.3,13.8-1.9c4.1,2.5,5.4,7.8,3,11.9C344.3,126.9,339.4,127.5,334.9,125.8z"/>
		</g>
	</g>
	<path id="elly2l20yd4u" class="st12" d="M334.5,122.2c0.1-0.1,0.4-0.1,1,0.1c0.8,0.2,1.6,0.3,2.4,0.3c0.5,0,1-0.1,1.5-0.3
		c0.4-0.2,0.8-0.5,1-0.9c0.2-0.4,0.1-0.9-0.1-1.3c-0.4-0.4-0.9-0.7-1.5-0.8c-0.4-0.1-0.8-0.2-1.2-0.4c-0.5-0.2-1-0.4-1.4-0.7
		c-0.2-0.2-0.4-0.4-0.6-0.6c-0.2-0.2-0.3-0.5-0.4-0.8c-0.2-0.5-0.2-1.1,0-1.7c0.1-0.5,0.4-1,0.8-1.3c0.3-0.3,0.7-0.6,1.2-0.7
		c0.7-0.2,1.4-0.3,2.2-0.2c0.5,0.1,1.1,0.3,1.6,0.5c0.3,0.2,0.7,0.4,1,0.6c0.5,0.4,0.8,0.6,0.7,0.8s-0.4,0.1-1,0
		c-0.8-0.2-1.6-0.3-2.4-0.4c-0.5,0-1,0.1-1.4,0.3c-0.4,0.2-0.7,0.5-0.7,0.9c-0.1,0.2-0.1,0.4,0,0.6c0,0.1,0.1,0.2,0.1,0.2
		c0.1,0.1,0.2,0.1,0.2,0.2c0.6,0.3,1.3,0.6,2,0.7c0.5,0.1,0.9,0.3,1.4,0.6c0.2,0.1,0.5,0.3,0.7,0.5c0.2,0.2,0.4,0.4,0.5,0.7
		c0.5,1,0.5,2.2,0,3.1c-0.5,0.8-1.2,1.4-2.1,1.7c-0.7,0.2-1.4,0.3-2.1,0.1c-0.9-0.2-1.8-0.5-2.6-1.1
		C334.6,122.6,334.4,122.3,334.5,122.2z"/>
	<path id="eln8vt12woo6l" class="st12" d="M338.5,125.6c-0.3,0,0-3.2,0.5-7s1.3-6.9,1.5-6.8s0,3.2-0.5,7S338.8,125.6,338.5,125.6z"
		/>
	<path id="elirjvtk2i49" class="st12" d="M337,125c-0.3,0-0.1-2.9,0.4-6.3s1.2-6.2,1.5-6.2s0.1,2.9-0.5,6.3S337.3,125,337,125z"/>
	<g id="elle5xwz40rj">
		<g id="elxk6akwx8oge" class="st3">
			<path id="eligpsk3sjmv" class="st14" d="M314,121l2.4-17.3l0.2-0.1c7.8-3,19.3,2.3,26.8,5.8c1.3,0.6,2.5,1.2,3.6,1.6
				c7.2,3.1,14.3-1.3,14.7-1.9l0.6,0.1l-2.3,18.8l-0.2,0.1c-9.6,3-20,1.8-28.7-3.3c-5.8-3.6-16.7-3.8-16.8-3.8L314,121z M317,104.1
				l-2.3,16.3c2,0.1,11.3,0.5,16.7,3.9c8.5,5,18.6,6.2,28,3.3l2.1-17.5c-0.5,0.3-1,0.6-1.5,0.9c-1.6,0.8-7.4,3.2-13.3,0.7
				c-1.1-0.5-2.3-1-3.6-1.7C335.8,106.6,324.6,101.4,317,104.1L317,104.1z"/>
		</g>
	</g>
	<path id="elv6tutrfz3h" class="st12" d="M354.4,235.9c0,0-9.2-2-12.1-13c-1.8-6.8-7-19.5-12.4-19l-13.1,8.4
		c3.8,4.9,6.5,10.5,7.9,16.6c1.9,9.2,13.4,18.3,13.4,18.3L354.4,235.9z"/>
	<g id="el2y7mwt9higi">
		<g id="elsoehmza1j8q" class="st13">
			<path id="elsatn8r9ya4n" class="st14" d="M327,228.2c-1.4-3.9,0.5-8.1,4.4-9.6c0.3-0.1,0.7-0.2,1-0.3c3.8-0.7,7.8,3.6,8.4,7.5
				c0.7,3.8-1.9,7.4-5.7,8.1c0,0,0,0-0.1,0C331.3,234.6,328.3,231.9,327,228.2z"/>
		</g>
	</g>
	<path id="elbtztzwfei7" class="st12" d="M329,226.1c0.1,0,0.3,0.2,0.5,0.7c0.3,0.6,0.6,1.2,1.1,1.7c0.3,0.3,0.6,0.6,0.9,0.7
		c0.3,0.2,0.7,0.2,1.1,0.1c0.4-0.1,0.6-0.4,0.8-0.7c0.1-0.5,0-0.9-0.3-1.3c-0.1-0.3-0.3-0.6-0.4-0.9c-0.2-0.4-0.3-0.8-0.3-1.2
		c0-0.2,0-0.5,0.1-0.7c0.2-0.7,0.6-1.3,1.3-1.6c0.4-0.2,0.8-0.3,1.2-0.2c0.4,0,0.7,0.2,1.1,0.3c0.5,0.3,0.9,0.7,1.3,1.2
		c0.2,0.4,0.4,0.8,0.5,1.2c0.1,0.3,0.1,0.6,0.2,0.9c0.1,0.5,0,0.8-0.1,0.9s-0.3-0.2-0.5-0.6c-0.3-0.6-0.6-1.2-1-1.7
		c-0.3-0.3-0.6-0.5-0.9-0.7c-0.3-0.2-0.7-0.2-1,0c-0.1,0.1-0.2,0.2-0.3,0.3c0,0.1-0.1,0.1-0.1,0.2c0,0.1,0,0.2,0,0.3
		c0.1,0.6,0.3,1.1,0.6,1.6c0.2,0.4,0.3,0.8,0.4,1.2c0,0.2,0,0.5,0,0.7c0,0.2-0.1,0.5-0.1,0.7c-0.3,0.8-1,1.5-1.9,1.7
		c-0.7,0.2-1.5,0-2.1-0.4c-0.5-0.3-0.9-0.7-1.2-1.2c-0.4-0.7-0.6-1.4-0.7-2.2C328.9,226.4,328.9,226.1,329,226.1z"/>
	<path id="elcjm0himxaj4" class="st12" d="M329.1,230.3c-0.1-0.2,1.9-1.7,4.6-3.4s4.9-2.8,5-2.6s-1.9,1.7-4.6,3.4
		S329.2,230.5,329.1,230.3z"/>
	<path id="elobaa5mnigxr" class="st12" d="M328.6,229.1c-0.1-0.2,1.7-1.6,4.1-3.1s4.5-2.6,4.6-2.4s-1.7,1.6-4.1,3.1
		S328.8,229.3,328.6,229.1z"/>
	<g id="elyd9bc5i4vsa">
		<g id="el7ycylqnxuw3" class="st3">
			<path id="elm5dgp4rjgnm" class="st14" d="M319,212.8l11.9-7.6l0.1,0.1c6,3.2,8.7,13.1,10.6,19.6c0.3,1.1,0.6,2.2,0.9,3.1
				c1.9,6.1,8.3,8.2,8.9,8.1l0.2,0.4l-12.7,8.4l-0.1-0.1c-6.9-4.3-11.7-11.4-13.1-19.4c-0.9-5.5-6.4-12.3-6.5-12.4L319,212.8z
				 M331,205.8l-11.3,7.2c1,1.2,5.6,7.3,6.4,12.4c1.4,7.8,6,14.7,12.7,19l11.9-7.9c-0.4-0.1-0.9-0.3-1.3-0.5
				c-1.4-0.6-5.9-2.9-7.4-7.9c-0.3-0.9-0.6-2-0.9-3.1C339.3,218.6,336.6,209,331,205.8L331,205.8z"/>
		</g>
	</g>
	<path id="eldsbvb3w16aa" class="st12" d="M266.8,163.3c0,0-7.4,1.4-12.8-5.8c-3.4-4.4-11.1-12.1-14.9-10l-6.9,10.2
		c4.3,2.4,8,5.6,10.9,9.6c4.2,6.1,15.4,9.2,15.4,9.2L266.8,163.3z"/>
	<g id="elkei04jdrdse">
		<g id="elv37374u82ri" class="st13">
			<path id="elp0gqoqykfaa" class="st14" d="M244.4,166.1c-2.2-2.4-2.1-6.1,0.3-8.3c0.2-0.2,0.4-0.4,0.7-0.5
				c2.6-1.7,6.8,0.3,8.4,2.9c1.7,2.6,0.9,6-1.7,7.7C249.5,169.4,246.5,168.4,244.4,166.1z"/>
		</g>
	</g>
	<path id="eljs00vwoco2" class="st12" d="M245.2,163.9c0.1-0.1,0.3,0.1,0.6,0.3c0.4,0.3,0.8,0.6,1.3,0.9c0.3,0.1,0.6,0.2,0.9,0.3
		c0.3,0,0.6-0.1,0.8-0.2c0.2-0.2,0.4-0.5,0.3-0.8c-0.1-0.4-0.3-0.7-0.6-0.9c-0.2-0.2-0.4-0.4-0.6-0.6c-0.2-0.2-0.4-0.5-0.6-0.8
		c-0.1-0.2-0.1-0.3-0.2-0.5c0-0.2,0-0.4,0-0.6c0.1-0.7,0.6-1.3,1.3-1.5c0.3-0.1,0.6-0.1,0.9-0.1c0.5,0.1,0.9,0.2,1.3,0.5
		c0.3,0.2,0.5,0.5,0.8,0.7c0.2,0.2,0.3,0.4,0.4,0.6c0.2,0.4,0.3,0.6,0.2,0.6s-0.3-0.1-0.6-0.3c-0.4-0.3-0.8-0.6-1.3-0.9
		c-0.3-0.1-0.6-0.2-0.9-0.2c-0.3,0-0.5,0.1-0.7,0.3c-0.1,0.1-0.1,0.2-0.1,0.3c0,0.1,0,0.1,0,0.2c0,0.1,0,0.1,0.1,0.2
		c0.3,0.4,0.6,0.7,0.9,1c0.2,0.2,0.4,0.5,0.6,0.7c0.1,0.2,0.2,0.3,0.2,0.5c0.1,0.2,0.1,0.4,0.1,0.6c0,0.7-0.3,1.4-0.9,1.8
		c-0.5,0.3-1.1,0.5-1.7,0.4c-0.5-0.1-0.9-0.3-1.3-0.5c-0.5-0.4-0.9-0.8-1.2-1.4C245.2,164.2,245.1,164,245.2,163.9z"/>
	<path id="elqiesshlu7zq" class="st12" d="M246.6,167c-0.1-0.1,0.9-1.8,2.3-3.9s2.7-3.6,2.9-3.5s-0.9,1.8-2.3,3.9
		S246.7,167.1,246.6,167z"/>
	<path id="el7xjkzshhia9" class="st12" d="M245.9,166.2c-0.1-0.1,0.8-1.7,2.1-3.5s2.5-3.2,2.6-3.1s-0.8,1.7-2.1,3.5
		S246,166.3,245.9,166.2z"/>
	<g id="elcxtoofb98p">
		<g id="elduyb1v5m6j" class="st3">
			<path id="el616zjfz8svn" class="st14" d="M233.8,157.4l6.3-9.3h0.1c5.4,0.5,10.4,6.8,13.8,11c0.6,0.7,1.1,1.4,1.6,2
				c2.3,2.5,5.7,3.7,9,3.1l0.3,0.3l-6.7,10.1h-0.1c-6.4-1-12-4.7-15.5-10.1c-2.3-3.7-8.5-6.9-8.6-7L233.8,157.4z M240.3,148.6
				l-6,8.7c1.1,0.6,6.3,3.6,8.5,7c3.4,5.3,8.9,8.9,15.2,9.9l6.2-9.4c-0.4,0-0.7,0.1-1.1,0.1c-3,0-5.8-1.2-7.9-3.4
				c-0.5-0.6-1-1.3-1.6-2C250.4,155.3,245.5,149.1,240.3,148.6z"/>
		</g>
	</g>
	<path id="elyv1qu9q1nz" class="st12" d="M82.4,299.1c0,0-7.3,1.4-12.8-5.8c-3.4-4.4-11.1-12.1-14.9-10l-6.9,10.2
		c4.3,2.4,8,5.6,10.9,9.6c4.2,6.1,15.4,9.2,15.4,9.2L82.4,299.1z"/>
	<g id="eldi6b04t0wrv">
		<g id="el8aa6d723msh" class="st13">
			<path id="elgkswc8qahmq" class="st14" d="M60.1,302c-2.2-2.4-2.1-6.1,0.2-8.3c0.2-0.2,0.4-0.4,0.7-0.5c2.6-1.7,6.8,0.3,8.4,2.9
				c1.7,2.6,0.9,6-1.7,7.7C65.2,305.3,62.1,304.2,60.1,302z"/>
		</g>
	</g>
	<path id="el2w4fsua6ynu" class="st12" d="M60.9,299.8c0.1-0.1,0.3,0.1,0.6,0.3c0.4,0.3,0.8,0.6,1.3,0.9c0.3,0.1,0.6,0.2,0.9,0.3
		c0.3,0,0.6-0.1,0.8-0.2c0.2-0.2,0.3-0.5,0.3-0.8c-0.1-0.4-0.3-0.7-0.6-0.9c-0.2-0.2-0.4-0.4-0.6-0.6c-0.2-0.2-0.4-0.5-0.6-0.8
		c-0.1-0.2-0.1-0.3-0.2-0.5c0-0.2,0-0.4,0-0.6c0-0.4,0.2-0.7,0.5-1c0.2-0.3,0.5-0.4,0.8-0.5c0.3-0.1,0.6-0.1,0.9-0.1
		c0.5,0.1,0.9,0.2,1.3,0.5c0.3,0.2,0.6,0.5,0.8,0.7c0.2,0.2,0.3,0.4,0.4,0.6c0.2,0.4,0.3,0.6,0.2,0.6s-0.3-0.1-0.6-0.3
		c-0.4-0.3-0.8-0.6-1.3-0.9c-0.3-0.1-0.6-0.2-0.9-0.2c-0.3,0-0.5,0.1-0.7,0.3c-0.1,0.1-0.1,0.2-0.1,0.3c0,0.1,0,0.1,0,0.2
		c0,0.1,0,0.1,0.1,0.2c0.3,0.4,0.6,0.7,0.9,1c0.2,0.2,0.5,0.5,0.6,0.7c0.1,0.2,0.2,0.3,0.2,0.5c0.1,0.2,0.1,0.4,0.1,0.5
		c0.1,0.7-0.3,1.4-0.9,1.9c-0.5,0.3-1.1,0.5-1.7,0.4c-0.5-0.1-0.9-0.3-1.3-0.5c-0.5-0.4-0.9-0.8-1.2-1.4
		C60.8,300,60.8,299.8,60.9,299.8z"/>
	<path id="el9943y4m33sm" class="st12" d="M62.2,302.8c-0.2-0.1,0.9-1.8,2.3-3.9c1.4-2,2.7-3.6,2.8-3.5s-0.9,1.8-2.3,3.9
		S62.4,302.9,62.2,302.8z"/>
	<path id="el4d0irqqhmu" class="st12" d="M61.5,302.1c-0.2-0.1,0.8-1.7,2.1-3.5c1.3-1.8,2.5-3.2,2.6-3.1s-0.8,1.7-2.1,3.5
		S61.7,302.2,61.5,302.1z"/>
	<g id="elu8da7fb862">
		<g id="elo5e70bh8tk" class="st3">
			<path id="el9su6gokiola" class="st14" d="M49.5,293.2l6.3-9.2h0.1c5.3,0.5,10.4,6.8,13.8,11c0.6,0.7,1.1,1.4,1.6,2
				c2.3,2.5,5.7,3.7,9,3.1l0.3,0.3l-6.7,10.1h-0.1c-6.4-1-12-4.7-15.6-10.1c-2.3-3.7-8.5-7-8.5-7L49.5,293.2z M56,284.4l-6,8.7
				c1.1,0.6,6.3,3.5,8.5,7c3.4,5.3,8.9,8.9,15.2,9.9l6.2-9.4c-0.4,0.1-0.7,0.1-1.1,0.1c-3,0-5.8-1.2-7.8-3.4c-0.5-0.6-1-1.3-1.6-2
				C66.1,291.2,61.1,285,56,284.4z"/>
		</g>
	</g>
	<path id="eldcs9xs8gf9r" class="st12" d="M190.2,204.8c0,0-2.7,8.9-13.8,10.8c-6.9,1.1-19.8,5.3-19.6,10.6l7.2,13.6
		c5.1-3.3,10.9-5.5,16.9-6.4c9.2-1.1,19.1-11.6,19.1-11.6L190.2,204.8z"/>
	<g id="elewud09y772f">
		<g id="elt9zs3qnu0qk" class="st13">
			<path id="elpfju6qiieyc" class="st14" d="M180.4,231.1c-3.9,1.1-7.9-1.2-9-5.1c-0.1-0.3-0.2-0.7-0.2-1.1c-0.3-3.8,4.2-7.3,8-7.6
				c3.8-0.3,7.2,2.5,7.5,6.3C187,227.5,184.1,230.2,180.4,231.1z"/>
		</g>
	</g>
	<path id="el9nhxgv3azx" class="st12" d="M178.4,229c0-0.1,0.2-0.3,0.7-0.4c0.6-0.2,1.2-0.5,1.7-0.9c0.3-0.2,0.6-0.5,0.8-0.9
		c0.2-0.3,0.3-0.7,0.2-1.1c-0.1-0.4-0.3-0.6-0.6-0.8c-0.4-0.1-0.9-0.1-1.3,0.1c-0.3,0.1-0.6,0.2-1,0.3c-0.4,0.1-0.8,0.2-1.2,0.2
		c-0.2,0-0.5,0-0.7-0.1c-0.2-0.1-0.4-0.2-0.6-0.3c-0.4-0.3-0.6-0.6-0.8-1.1c-0.1-0.4-0.2-0.8-0.1-1.2c0.1-0.4,0.2-0.7,0.4-1
		c0.3-0.5,0.8-0.9,1.3-1.1c0.4-0.2,0.8-0.3,1.3-0.4c0.3-0.1,0.6-0.1,0.9-0.1c0.5,0,0.8,0.1,0.8,0.2s-0.2,0.3-0.7,0.5
		c-0.6,0.2-1.2,0.5-1.7,0.9c-0.3,0.2-0.6,0.5-0.8,0.9c-0.2,0.3-0.2,0.6-0.1,0.9c0.1,0.1,0.2,0.3,0.3,0.3c0.1,0,0.1,0.1,0.2,0.1
		c0.1,0,0.2,0,0.3,0c0.6-0.1,1.1-0.2,1.6-0.5c0.4-0.1,0.8-0.2,1.2-0.3c0.2,0,0.4,0,0.7,0c0.2,0,0.5,0.1,0.7,0.2
		c0.8,0.4,1.4,1.1,1.5,2c0.1,0.7-0.1,1.5-0.6,2.1c-0.4,0.5-0.8,0.8-1.3,1.1c-0.7,0.3-1.4,0.5-2.2,0.5
		C178.7,229.2,178.4,229.1,178.4,229z"/>
	<path id="elo3kwmzmkwd" class="st12" d="M182.6,229.3c-0.2,0.1-1.5-2-2.9-4.8s-2.4-5.1-2.2-5.2s1.5,2,2.9,4.8
		S182.8,229.2,182.6,229.3z"/>
	<path id="el4p5if0sa7b" class="st12" d="M181.4,229.6c-0.2,0.1-1.4-1.8-2.7-4.3s-2.1-4.6-1.9-4.7s1.4,1.8,2.7,4.3
		S181.6,229.5,181.4,229.6z"/>
	<g id="eldaftwy1eegm">
		<g id="el6gz2m10fkyi" class="st3">
			<path id="eld0nuhgebde" class="st14" d="M164.6,237.8l-6.5-12.4l0.1-0.1c3.7-5.6,13.6-7.5,20.1-8.8c1.1-0.2,2.2-0.4,3.1-0.6
				c6.1-1.3,8.7-7.5,8.6-8.1l0.4-0.2l7.2,13.2l-0.1,0.1c-4.8,6.4-12.2,10.5-20.2,11.3c-5.4,0.4-12.6,5.3-12.6,5.4L164.6,237.8z
				 M158.7,225.4l6.1,11.6c1.3-0.9,7.6-4.9,12.7-5.3c7.8-0.7,14.9-4.7,19.7-10.9l-6.8-12.3c-0.2,0.4-0.3,0.8-0.6,1.3
				c-0.7,1.3-3.3,5.6-8.3,6.6c-0.9,0.2-2,0.4-3.1,0.6C172,218.3,162.3,220.1,158.7,225.4z"/>
		</g>
	</g>
	<path id="elvzefn2l03sm" class="st12" d="M130.2,179.6c0,0-9.2,7.2-21.9,1.3c-7.9-3.7-24.1-8.6-27.7-3.1l-2.2,19.1
		c0,0,11.6-0.1,22,5.4c10.2,5.4,27.9,1.7,27.9,1.7L130.2,179.6z"/>
	<g id="ellet2uaiqnd">
		<g id="el7ngiswb9uql" class="st13">
			<path id="elhlmd6q9ckeg" class="st14" d="M101.4,199.7c-4.8-1.7-7.3-6.9-5.7-11.7c0.1-0.4,0.3-0.8,0.5-1.2
				c2.4-4.2,9.6-4.5,13.7-2.1c4.2,2.4,5.6,7.7,3.2,11.8c0,0,0,0,0,0C110.8,200.6,105.9,201.3,101.4,199.7z"/>
		</g>
	</g>
	<path id="elb553w62h97c" class="st12" d="M100.9,196.1c0.1-0.1,0.4-0.1,1,0c0.8,0.2,1.6,0.3,2.4,0.3c0.5,0,1-0.1,1.4-0.3
		c0.4-0.2,0.8-0.5,1-0.9c0.2-0.4,0.1-0.9-0.1-1.3c-0.4-0.4-0.9-0.7-1.5-0.8c-0.4-0.1-0.8-0.2-1.2-0.4c-0.5-0.1-1-0.4-1.4-0.7
		c-0.2-0.2-0.4-0.4-0.6-0.6c-0.2-0.2-0.3-0.5-0.4-0.8c-0.2-0.5-0.2-1.1-0.1-1.7c0.3-1,1-1.7,1.9-2.1c0.7-0.3,1.4-0.3,2.2-0.2
		c0.5,0.1,1.1,0.2,1.6,0.5c0.3,0.2,0.7,0.3,1,0.6c0.5,0.4,0.8,0.6,0.7,0.8s-0.4,0.1-1,0c-0.8-0.2-1.6-0.3-2.4-0.3
		c-0.5,0-1,0.1-1.4,0.3c-0.4,0.2-0.7,0.5-0.7,0.9c-0.1,0.2-0.1,0.4,0,0.6c0,0.1,0.1,0.2,0.2,0.2c0.1,0.1,0.1,0.2,0.2,0.2
		c0.6,0.3,1.3,0.5,2,0.7c0.5,0.1,0.9,0.3,1.4,0.6c0.2,0.1,0.5,0.3,0.7,0.5c0.2,0.2,0.4,0.4,0.6,0.7c0.6,1,0.6,2.1,0.1,3.1
		c-0.4,0.8-1.2,1.5-2.1,1.7c-0.7,0.2-1.4,0.3-2.1,0.2c-0.9-0.1-1.8-0.5-2.6-1C101.1,196.5,100.8,196.2,100.9,196.1z"/>
	<path id="elezmrgqot72e" class="st12" d="M105,199.4c-0.3,0-0.1-3.2,0.4-7s1.2-6.9,1.4-6.9s0.1,3.2-0.4,7S105.3,199.4,105,199.4z"
		/>
	<path id="el2qmaeau8tpk" class="st12" d="M103.5,198.8c-0.3,0-0.1-2.9,0.3-6.4s1.1-6.3,1.3-6.2s0.1,2.9-0.3,6.4
		S103.8,198.9,103.5,198.8z"/>
	<g id="elxx1qcigx3xt">
		<g id="elso9mgjtkb6m" class="st3">
			<path id="el4tux31jibq" class="st14" d="M80.5,195.3l2.1-17.3l0.2-0.1c7.8-3.1,19.3,2,27,5.3c1.3,0.6,2.6,1.1,3.6,1.6
				c7.2,3,14.3-1.5,14.6-2.2l0.6,0.1l-2,18.8l-0.2,0.1c-9.5,3.2-20,2.2-28.8-2.8c-5.9-3.5-16.7-3.5-16.8-3.5L80.5,195.3z
				 M83.1,178.4l-2,16.3c1.9,0,11.3,0.3,16.8,3.6c8.6,4.8,18.7,5.8,28.1,2.8l1.8-17.5c-0.5,0.3-1,0.6-1.5,0.9
				c-1.6,0.8-7.3,3.4-13.3,0.9c-1.1-0.4-2.3-1-3.7-1.6C101.9,180.5,90.6,175.5,83.1,178.4z"/>
		</g>
	</g>
	<path id="elouew2fto0v" class="st12" d="M203.6,57.1c0,0,1.3,10.2-9,17.1c-6.4,4.3-17.5,14.2-15,19.5l13.4,10.4
		c3.6-5.7,8.4-10.5,14.1-14.1c8.7-5.3,14-20.3,14-20.3L203.6,57.1z"/>
	<g id="elpq36x242fis">
		<g id="elmxriptinvx" class="st13">
			<path id="elpmckd0opxri" class="st14" d="M205.6,88c-3.4,2.9-8.5,2.4-11.4-1.1c-0.2-0.3-0.5-0.6-0.7-0.9c-2.1-3.7,1-9.3,4.6-11.3
				c3.7-2.1,8.3-0.7,10.4,2.9C210.7,81.3,208.9,85.3,205.6,88z"/>
		</g>
	</g>
	<path id="eln4zg4ixpy0p" class="st12" d="M202.7,86.7c-0.1-0.1,0.1-0.4,0.5-0.8c0.5-0.5,1-1.1,1.3-1.7c0.2-0.4,0.4-0.8,0.4-1.2
		c0.1-0.4,0-0.8-0.3-1.2c-0.2-0.3-0.6-0.5-1-0.5c-0.5,0.1-1,0.3-1.3,0.7c-0.3,0.2-0.5,0.5-0.8,0.8c-0.3,0.3-0.7,0.5-1.1,0.7
		c-0.2,0.1-0.5,0.2-0.7,0.2c-0.3,0-0.5,0-0.8,0c-0.5-0.1-0.9-0.4-1.3-0.7c-0.3-0.3-0.6-0.7-0.7-1.2c-0.1-0.4-0.1-0.8,0-1.2
		c0.1-0.6,0.4-1.2,0.8-1.7c0.3-0.4,0.7-0.7,1.1-1c0.3-0.2,0.6-0.4,0.9-0.5c0.5-0.3,0.8-0.3,0.9-0.2s-0.1,0.4-0.5,0.8
		c-0.5,0.5-1,1.1-1.3,1.7c-0.2,0.4-0.3,0.8-0.4,1.2c-0.1,0.4,0.1,0.8,0.4,1c0.1,0.1,0.3,0.2,0.4,0.2c0.1,0,0.2,0,0.2,0
		c0.1,0,0.2,0,0.3-0.1c0.5-0.3,1-0.7,1.4-1.2c0.3-0.3,0.6-0.6,1-0.8c0.2-0.1,0.5-0.2,0.7-0.3c0.3-0.1,0.5-0.1,0.8-0.1
		c1,0,1.9,0.5,2.4,1.4c0.4,0.7,0.5,1.6,0.3,2.4c-0.1,0.6-0.4,1.2-0.8,1.7c-0.5,0.7-1.2,1.2-2,1.5C203.1,86.8,202.8,86.8,202.7,86.7z
		"/>
	<path id="eltzqd14ww5uc" class="st12" d="M207,85.1c-0.2,0.2-2.4-1.4-5.1-3.5s-4.7-4-4.5-4.2s2.4,1.4,5.1,3.5S207.2,84.9,207,85.1z
		"/>
	<path id="el4ikjapw5j9p" class="st12" d="M205.9,86c-0.1,0.2-2.2-1.2-4.6-3.1s-4.3-3.7-4.1-3.9s2.2,1.2,4.6,3.2
		S206.1,85.8,205.9,86z"/>
	<g id="elpetu2z6dmo">
		<g id="elmckuv9xm9zj" class="st3">
			<path id="elrbbm7uzhosi" class="st14" d="M192.8,101.8l-12.1-9.5v-0.2c1.2-7.3,10.3-13.7,16.3-17.9c1-0.7,2-1.4,2.9-2
				c5.5-4.1,5.4-11.5,5-12l0.4-0.4l13.3,10V70c-2,8.6-7.5,16.1-15.2,20.5c-5.3,2.9-10.3,11-10.3,11.1L192.8,101.8z M181.2,92.1
				l11.4,8.9c0.9-1.5,5.4-8.4,10.4-11.1c7.5-4.3,12.9-11.5,14.9-19.9l-12.4-9.4c0,0.5,0,1,0,1.5c-0.1,1.6-0.8,7.1-5.4,10.5
				c-0.8,0.6-1.8,1.3-2.9,2C191.4,78.8,182.4,85.1,181.2,92.1z"/>
		</g>
	</g>
</g>
<g id="freepik--Money--inject-294">
	<rect id="ele3m40bdsm1" x="379.1" y="425.7" class="st5" width="52.7" height="11.4"/>
	<polygon id="elr4tyxzcprp" class="st1" points="400,425.7 400.9,437.1 408.3,437.1 408.7,425.7 	"/>
	<rect id="el4du79ig0r0f" x="366.4" y="425.7" class="st11" width="52.7" height="11.4"/>
	<path id="elstk6uhuysg" class="st5" d="M418.8,427.5c0,0.1-11.7,0.3-26.2,0.3s-26.2-0.1-26.2-0.3s11.7-0.3,26.2-0.3
		S418.8,427.3,418.8,427.5z"/>
	<path id="ell6p2pjghxtn" class="st5" d="M418.8,430.1c0,0.1-11.7,0.3-26.2,0.3s-26.2-0.1-26.2-0.3s11.7-0.3,26.2-0.3
		S418.8,429.9,418.8,430.1z"/>
	<path id="elp6rbm8dplv" class="st5" d="M418.8,432.7c0,0.1-11.7,0.3-26.2,0.3s-26.2-0.1-26.2-0.3s11.7-0.3,26.2-0.3
		S418.8,432.5,418.8,432.7z"/>
	<path id="elp9gxps11mh" class="st5" d="M418.8,435.3c0,0.1-11.7,0.3-26.2,0.3s-26.2-0.1-26.2-0.3s11.7-0.3,26.2-0.3
		S418.8,435.1,418.8,435.3z"/>
	<polygon id="elwu3wpc7phra" class="st1" points="387.3,425.7 388.1,437.1 395.6,437.1 395.9,425.7 	"/>
	<rect id="elaqcryooujcp" x="385.5" y="414.4" class="st5" width="52.7" height="11.4"/>
	<polygon id="elcuv8sav46tq" class="st1" points="406.4,414.4 407.3,425.8 414.7,425.8 415.1,414.4 	"/>
	<rect id="elq5muy7579nm" x="372.7" y="414.4" class="st11" width="52.7" height="11.4"/>
	<path id="elsykhl5q8fxs" class="st5" d="M425.2,416.2c0,0.1-11.7,0.3-26.2,0.3s-26.2-0.1-26.2-0.3s11.7-0.3,26.2-0.3
		S425.2,416,425.2,416.2z"/>
	<path id="el4ilkce8gtjs" class="st5" d="M425.2,418.8c0,0.1-11.7,0.3-26.2,0.3s-26.2-0.1-26.2-0.3s11.7-0.3,26.2-0.3
		S425.2,418.6,425.2,418.8z"/>
	<path id="elgd5p3xow1lf" class="st5" d="M425.2,421.4c0,0.1-11.7,0.3-26.2,0.3s-26.2-0.1-26.2-0.3s11.7-0.3,26.2-0.3
		S425.2,421.3,425.2,421.4z"/>
	<path id="el1ql8rb3w0qd" class="st5" d="M425.2,424c0,0.1-11.7,0.3-26.2,0.3s-26.2-0.1-26.2-0.3s11.7-0.3,26.2-0.3
		S425.2,423.9,425.2,424z"/>
	<polygon id="elqbp3ttugpsn" class="st1" points="393.6,414.4 394.5,425.8 401.9,425.8 402.3,414.4 	"/>
	<rect id="eliqq5pfb4fhh" x="381.9" y="448.3" class="st5" width="52.7" height="11.4"/>
	<polygon id="el5cdqtugu8bi" class="st1" points="402.8,448.3 403.7,459.7 411.1,459.7 411.5,448.3 	"/>
	<rect id="el09kp4fftuvy" x="369.2" y="448.3" class="st11" width="52.7" height="11.4"/>
	<path id="elc34dpvnqm5l" class="st5" d="M421.6,450.1c0,0.1-11.7,0.3-26.2,0.3s-26.2-0.1-26.2-0.3s11.7-0.3,26.2-0.3
		S421.6,450,421.6,450.1z"/>
	<path id="el3f6wj63mqxt" class="st5" d="M421.6,452.7c0,0.1-11.7,0.3-26.2,0.3s-26.2-0.1-26.2-0.3s11.7-0.3,26.2-0.3
		S421.6,452.6,421.6,452.7z"/>
	<path id="elasr3uooa99c" class="st5" d="M421.6,455.3c0,0.1-11.7,0.3-26.2,0.3s-26.2-0.1-26.2-0.3s11.7-0.3,26.2-0.3
		S421.6,455.2,421.6,455.3z"/>
	<path id="elvkraklsaeh" class="st5" d="M421.6,457.9c0,0.1-11.7,0.3-26.2,0.3s-26.2-0.1-26.2-0.3s11.7-0.3,26.2-0.3
		S421.6,457.8,421.6,457.9z"/>
	<polygon id="elb59yc1mxnf" class="st1" points="390.1,448.3 390.9,459.7 398.4,459.7 398.8,448.3 	"/>
	<rect id="elw2y9oo6ln4a" x="388.3" y="437.1" class="st5" width="52.7" height="11.4"/>
	<polygon id="eli9rdwfegyy" class="st1" points="409.2,437.1 410.1,448.5 417.5,448.5 417.9,437.1 	"/>
	<rect id="el7znc4wqitcq" x="375.5" y="437.1" class="st11" width="52.7" height="11.4"/>
	<path id="el7q2e64de78i" class="st5" d="M428,438.8c0,0.1-11.7,0.3-26.2,0.3s-26.2-0.1-26.2-0.3s11.7-0.3,26.2-0.3
		S428,438.7,428,438.8z"/>
	<path id="elmjhn447nz6" class="st5" d="M428,441.5c0,0.1-11.7,0.3-26.2,0.3s-26.2-0.1-26.2-0.3s11.7-0.3,26.2-0.3
		S428,441.3,428,441.5z"/>
	<path id="eltphgjucln0c" class="st5" d="M428,444.1c0,0.1-11.7,0.3-26.2,0.3s-26.2-0.1-26.2-0.3s11.7-0.3,26.2-0.3
		S428,443.9,428,444.1z"/>
	<path id="elgjlsf25w9ew" class="st5" d="M428,446.7c0,0.1-11.7,0.3-26.2,0.3s-26.2-0.1-26.2-0.3s11.7-0.3,26.2-0.3
		S428,446.5,428,446.7z"/>
	<polygon id="elkz96m9b0vu" class="st1" points="396.5,437.1 397.3,448.5 404.8,448.5 405.1,437.1 	"/>
	<rect id="eltwsrff70yv" x="346.5" y="436.9" class="st12" width="52.7" height="11.4"/>
	<g id="el8pjom87on64">
		<rect id="elfxl9hrudh3p" x="346.5" y="436.9" class="st15" width="52.7" height="11.4"/>
	</g>
	<polygon id="elknus7l5ea6f" class="st1" points="367.4,436.9 368.3,448.3 375.7,448.3 376.1,436.9 	"/>
	<rect id="elgui23ylhttf" x="340.7" y="448.3" class="st12" width="52.7" height="11.4"/>
	<g id="el3hg36196uvp">
		<rect id="el6dpq4rqq9e7" x="340.7" y="448.3" class="st15" width="52.7" height="11.4"/>
	</g>
	<polygon id="elxozcy8hrczj" class="st1" points="361.6,448.3 362.5,459.7 369.9,459.7 370.3,448.3 	"/>
	<rect id="eljqbrsuhmomd" x="328" y="448.3" class="st12" width="52.7" height="11.4"/>
	<g id="elvaao35h337">
		<g id="el2gguz6c0zz9" class="st10">
			<path id="elh2u2k0md9fv" d="M380.5,450.1c0,0.1-11.7,0.3-26.2,0.3s-26.2-0.1-26.2-0.3s11.7-0.3,26.2-0.3S380.5,450,380.5,450.1z"
				/>
		</g>
	</g>
	<g id="el8ncd7xl5lzg">
		<g id="ellql3ghy8hq" class="st10">
			<path id="elxafpx58wv9f" d="M380.4,452.7c0,0.1-11.7,0.3-26.2,0.3s-26.2-0.1-26.2-0.3s11.7-0.3,26.2-0.3S380.4,452.6,380.4,452.7
				z"/>
		</g>
	</g>
	<g id="el1qktugfvlue">
		<g id="el8ezw8jb8mi6" class="st10">
			<path id="el10pd16r2u9p" d="M380.4,455.3c0,0.1-11.7,0.3-26.2,0.3s-26.2-0.1-26.2-0.3s11.7-0.3,26.2-0.3S380.4,455.2,380.4,455.3
				z"/>
		</g>
	</g>
	<g id="elov1pgo070t8">
		<g id="el3w8q54izke4" class="st10">
			<path id="el2dyx71n0vwb" d="M380.4,457.9c0,0.1-11.7,0.3-26.2,0.3s-26.2-0.1-26.2-0.3s11.7-0.3,26.2-0.3S380.4,457.8,380.4,457.9
				z"/>
		</g>
	</g>
	<polygon id="el3toheaite2s" class="st1" points="348.9,448.3 349.7,459.7 357.2,459.7 357.5,448.3 	"/>
	<rect id="el6vr0nms6af" x="335.5" y="436.9" class="st12" width="52.7" height="11.4"/>
	<g id="elnnwqqxgbshr">
		<g id="elihgr99c1wb" class="st10">
			<path id="elxp2nh6m3wvm" d="M388,438.7c0,0.1-11.7,0.3-26.2,0.3s-26.2-0.1-26.2-0.3s11.7-0.3,26.2-0.3S388,438.6,388,438.7z"/>
		</g>
	</g>
	<g id="elmxtjwkktli">
		<g id="elkxnm8zwkonp" class="st10">
			<path id="el85a06mvg6tw" d="M388,441.3c0,0.1-11.7,0.3-26.2,0.3s-26.2-0.1-26.2-0.3s11.7-0.3,26.2-0.3S388,441.2,388,441.3z"/>
		</g>
	</g>
	<g id="el0etzsu03tanl">
		<g id="elm429c372med" class="st10">
			<path id="eleuy6m5q7e2p" d="M388,443.9c0,0.1-11.7,0.3-26.2,0.3s-26.2-0.1-26.2-0.3s11.7-0.3,26.2-0.3S388,443.8,388,443.9z"/>
		</g>
	</g>
	<g id="elfa3dakir6rd">
		<g id="elsdgl1qguz" class="st10">
			<path id="el4vnplgpnxf5" d="M388,446.5c0,0.1-11.7,0.3-26.2,0.3s-26.2-0.1-26.2-0.3s11.7-0.3,26.2-0.3S388,446.4,388,446.5z"/>
		</g>
	</g>
	<polygon id="elhia0c1qea6g" class="st1" points="356.5,436.9 357.3,448.3 364.8,448.3 365.1,436.9 	"/>
	<rect id="elhjd5if24sdk" x="97.2" y="448.3" class="st5" width="52.7" height="11.4"/>
	<polygon id="eldliqmdee75t" class="st1" points="118.1,448.3 119,459.7 126.4,459.7 126.8,448.3 	"/>
	<rect id="el70xaxz1oj58" x="84.4" y="448.3" class="st11" width="52.7" height="11.4"/>
	<path id="elosvh45th7us" class="st5" d="M136.9,450.1c0,0.1-11.7,0.3-26.2,0.3s-26.2-0.1-26.2-0.3s11.7-0.3,26.2-0.3
		S136.9,450,136.9,450.1z"/>
	<path id="elusenglwgag" class="st5" d="M136.9,452.7c0,0.1-11.7,0.3-26.2,0.3s-26.2-0.1-26.2-0.3s11.7-0.3,26.2-0.3
		S136.9,452.6,136.9,452.7z"/>
	<path id="elt12z5luds4" class="st5" d="M136.9,455.3c0,0.1-11.7,0.3-26.2,0.3s-26.2-0.1-26.2-0.3s11.7-0.3,26.2-0.3
		S136.9,455.2,136.9,455.3z"/>
	<path id="elu7j9ms88vek" class="st5" d="M136.9,457.9c0,0.1-11.7,0.3-26.2,0.3s-26.2-0.1-26.2-0.3s11.7-0.3,26.2-0.3
		S136.9,457.8,136.9,457.9z"/>
	<polygon id="eltyb7yi36svr" class="st2" points="105.3,448.3 106.2,459.7 113.6,459.7 114,448.3 	"/>
	<rect id="elneqdkottsf9" x="90.8" y="437.1" class="st5" width="52.7" height="11.4"/>
	<polygon id="el5gxcx3b0v9e" class="st1" points="111.7,437.1 112.6,448.5 120,448.5 120.4,437.1 	"/>
	<rect id="ele5ck3vrhtp4" x="78" y="437.1" class="st11" width="52.7" height="11.4"/>
	<path id="elghkmvw9cq8c" class="st5" d="M130.5,438.8c0,0.1-11.7,0.3-26.2,0.3s-26.2-0.1-26.2-0.3s11.7-0.3,26.2-0.3
		S130.5,438.7,130.5,438.8z"/>
	<path id="elt7pdhajxo9f" class="st5" d="M130.5,441.5c0,0.1-11.7,0.3-26.2,0.3s-26.2-0.1-26.2-0.3s11.7-0.3,26.2-0.3
		S130.5,441.3,130.5,441.5z"/>
	<path id="elpix5fa27wui" class="st5" d="M130.5,444.1c0,0.1-11.7,0.3-26.2,0.3s-26.2-0.1-26.2-0.3s11.7-0.3,26.2-0.3
		S130.5,443.9,130.5,444.1z"/>
	<path id="elclhmb0w2dqq" class="st5" d="M130.5,446.7c0,0.1-11.7,0.3-26.2,0.3s-26.2-0.1-26.2-0.3s11.7-0.3,26.2-0.3
		S130.5,446.5,130.5,446.7z"/>
	<polygon id="el991yyyzebi6" class="st2" points="98.9,437.1 99.8,448.5 107.2,448.5 107.6,437.1 	"/>
</g>
</svg>
